<svg width="945" height="600" viewBox="0 0 945 600" fill="none" xmlns="http://www.w3.org/2000/svg">
<mask id="mask0_1494_403" style="mask-type:alpha" maskUnits="userSpaceOnUse" x="0" y="0" width="570" height="600">
<rect width="570" height="600" fill="#C4C4C4"/>
</mask>
<g mask="url(#mask0_1494_403)">
</g>
<g clip-path="url(#clip0_1494_403)">
<path d="M584.113 284.106C562.947 284.106 545.741 301.308 545.741 322.469C545.741 343.63 562.947 360.832 584.113 360.832H603.708V284.106H584.113Z" fill="#3C3C3B"/>
<path d="M603.64 360.832C582.448 360.832 565.268 343.657 565.268 322.469C565.268 301.282 582.448 284.106 603.64 284.106C624.832 284.106 642.011 301.282 642.011 322.469C642.011 343.657 624.832 360.832 603.64 360.832Z" fill="#3C3C3B"/>
<path d="M603.64 347.044C590.065 347.044 579.06 336.041 579.06 322.469C579.06 308.897 590.065 297.895 603.64 297.895C617.215 297.895 628.219 308.897 628.219 322.469C628.219 336.041 617.215 347.044 603.64 347.044Z" fill="#575756"/>
<path d="M646.995 284.106C625.83 284.106 608.624 301.308 608.624 322.469C608.624 343.63 625.83 360.832 646.995 360.832H666.591V284.106H646.995Z" fill="#3C3C3B"/>
<path d="M296.191 284.106C275.025 284.106 257.82 301.308 257.82 322.469C257.82 343.63 275.025 360.832 296.191 360.832H315.786V284.106H296.191Z" fill="#3C3C3B"/>
<path d="M315.786 360.832C294.594 360.832 277.415 343.657 277.415 322.469C277.415 301.282 294.594 284.106 315.786 284.106C336.978 284.106 354.158 301.282 354.158 322.469C354.158 343.657 336.978 360.832 315.786 360.832Z" fill="#3C3C3B"/>
<path d="M315.786 347.044C302.211 347.044 291.207 336.041 291.207 322.469C291.207 308.897 302.211 297.895 315.786 297.895C329.361 297.895 340.366 308.897 340.366 322.469C340.366 336.041 329.361 347.044 315.786 347.044Z" fill="#575756"/>
<path d="M359.074 284.106C337.908 284.106 320.702 301.308 320.702 322.469C320.702 343.63 337.908 360.832 359.074 360.832H378.669V284.106H359.074Z" fill="#3C3C3B"/>
<path d="M249.968 315.575L223.204 313.663C215.625 313.117 209.753 306.837 209.753 299.26V195.843L221.838 59.3182C222.794 48.3963 231.875 40 242.867 40H470.296V315.575H249.968Z" fill="url(#paint0_linear_1494_403)"/>
<path d="M298.717 40H645.22C654.915 40 663.518 46.1436 666.727 55.2907L720.597 211.611C722.509 217.209 725.581 222.397 729.473 226.834L737.53 235.981C741.148 240.145 743.197 245.538 743.197 251.067V311.206C743.197 317.213 738.281 322.128 732.273 322.128H425.302L305.75 313.732C298.171 313.185 292.299 306.905 292.299 299.328V195.843L287.861 59.4547C287.588 48.8058 290.387 40 298.717 40Z" fill="url(#paint1_linear_1494_403)"/>
<path d="M332.036 315.575V309.772C332.036 284.037 352.929 263.149 378.669 263.149C404.409 263.149 425.302 284.037 425.302 309.772V322.128L332.036 315.575Z" fill="#1E2859"/>
<path d="M332.036 309.772V315.575L378.669 318.851V284.106H359.074C350.129 284.106 341.936 287.178 335.45 292.229C335.313 292.57 335.177 292.912 335.04 293.253C334.767 293.935 334.562 294.618 334.289 295.301C334.084 295.983 333.88 296.666 333.675 297.349C333.675 297.417 333.675 297.417 333.607 297.485C333.538 297.826 333.402 298.168 333.333 298.509C333.265 298.782 333.197 299.123 333.129 299.396C333.129 299.533 333.06 299.669 333.06 299.738C332.992 299.943 332.992 300.147 332.924 300.284C332.855 300.489 332.855 300.693 332.787 300.83C332.719 301.035 332.719 301.24 332.651 301.376C332.582 301.581 332.582 301.786 332.514 301.99C332.514 302.127 332.446 302.332 332.446 302.468C332.446 302.673 332.378 302.878 332.378 303.083C332.378 303.287 332.309 303.492 332.309 303.629C332.241 304.038 332.241 304.448 332.173 304.857C332.173 305.062 332.104 305.199 332.104 305.404C332.104 305.54 332.104 305.677 332.036 305.813C332.036 305.881 332.036 306.018 332.036 306.086C332.036 306.427 331.968 306.769 331.968 307.11C331.968 307.315 331.968 307.52 331.968 307.724V307.793C331.968 308.134 331.968 308.475 331.968 308.817C332.036 309.294 332.036 309.499 332.036 309.772Z" fill="#3C3C3B"/>
<path d="M378.669 360.832C357.477 360.832 340.298 343.657 340.298 322.469C340.298 301.282 357.477 284.106 378.669 284.106C399.861 284.106 417.04 301.282 417.04 322.469C417.04 343.657 399.861 360.832 378.669 360.832Z" fill="#575756"/>
<path d="M378.669 347.044C365.094 347.044 354.089 336.041 354.089 322.469C354.089 308.897 365.094 297.895 378.669 297.895C392.244 297.895 403.249 308.897 403.249 322.469C403.249 336.041 392.244 347.044 378.669 347.044Z" fill="#9D9D9C"/>
<path d="M368.427 309.021C367.949 310.933 367.813 312.981 367.95 315.097C368.632 324.79 376.348 332.64 386.043 333.459C388.023 333.596 389.935 333.528 391.778 333.118C393.348 332.777 394.441 334.688 393.348 335.848C389.73 339.876 384.404 342.333 378.601 342.333C367.676 342.265 358.732 333.255 358.8 322.264C358.869 316.257 361.532 310.933 365.765 307.315C366.994 306.291 368.837 307.451 368.427 309.021Z" fill="#DADADA"/>
<path d="M619.958 322.128V309.772C619.958 284.037 640.85 263.149 666.591 263.149C692.331 263.149 713.223 284.037 713.223 309.772V322.128H619.958Z" fill="#1E2859"/>
<path d="M619.958 309.772V322.128H666.591V284.106H646.995C638.051 284.106 629.858 287.178 623.372 292.229C621.187 297.622 619.958 303.56 619.958 309.772Z" fill="#3C3C3B"/>
<path d="M666.591 360.832C645.399 360.832 628.219 343.657 628.219 322.469C628.219 301.282 645.399 284.106 666.591 284.106C687.782 284.106 704.962 301.282 704.962 322.469C704.962 343.657 687.782 360.832 666.591 360.832Z" fill="#575756"/>
<path d="M666.591 347.044C653.016 347.044 642.011 336.041 642.011 322.469C642.011 308.897 653.016 297.895 666.591 297.895C680.166 297.895 691.17 308.897 691.17 322.469C691.17 336.041 680.166 347.044 666.591 347.044Z" fill="#9D9D9C"/>
<path d="M656.349 309.021C655.871 310.933 655.735 312.981 655.871 315.097C656.554 324.79 664.269 332.64 673.964 333.459C675.944 333.596 677.856 333.528 679.7 333.118C681.27 332.777 682.362 334.688 681.27 335.848C677.651 339.876 672.326 342.333 666.522 342.333C655.598 342.265 646.654 333.255 646.722 322.264C646.79 316.257 649.453 310.933 653.686 307.315C654.847 306.291 656.69 307.451 656.349 309.021Z" fill="#DADADA"/>
<path d="M588.551 73.5168H589.848V299.192H588.551V73.5168Z" fill="#30358C"/>
<path d="M602.274 218.301H628.083V211.406H602.274V218.301ZM626.854 217.004H603.572V212.635H626.854V217.004Z" fill="#30358C"/>
<path d="M666.591 254.548H705.85C708.717 254.548 711.039 252.227 711.039 249.36V217.618H709.741V249.36C709.741 251.545 707.966 253.251 705.85 253.251H666.522V254.548H666.591Z" fill="#30358C"/>
<path d="M449.267 299.806H614.769L614.837 299.26C618.729 274.208 641.465 254.548 666.591 254.548V253.251C653.891 253.251 641.465 258.098 631.496 266.904C621.938 275.368 615.656 286.563 613.676 298.509H449.267V299.806Z" fill="#30358C"/>
<path d="M430.491 299.806H449.267V298.509H431.583C429.603 286.563 423.253 275.3 413.763 266.904C403.863 258.098 391.368 253.251 378.669 253.251C370.749 253.251 361.873 255.845 353.68 260.555C345.964 264.992 339.751 270.795 336.474 276.529H292.367V277.826H337.225L337.43 277.484C340.571 271.819 346.715 266.016 354.362 261.647C362.419 257.006 371.09 254.48 378.737 254.48C403.863 254.48 426.599 274.139 430.491 299.192V299.806Z" fill="#30358C"/>
<path d="M219.312 72.8342V74.1312H673.213L672.735 72.8342H219.312Z" fill="#30358C"/>
<path d="M596.471 175.569V79.8652C596.471 76.3839 599.338 73.5168 602.82 73.5168H660.582C663.382 73.5168 665.84 75.2917 666.659 77.9539L707.215 207.516C708.649 212.089 704.689 216.594 699.978 215.639L616.407 199.665C604.8 197.481 596.471 187.378 596.471 175.569Z" fill="url(#paint2_linear_1494_403)"/>
<path d="M602.82 100.89H623.986C626.99 100.89 629.585 102.938 630.199 105.873L650.273 197.071C651.228 201.508 647.337 205.536 642.83 204.717L616.407 199.665C604.869 197.481 596.471 187.31 596.471 175.569V107.238C596.471 103.757 599.338 100.89 602.82 100.89Z" fill="#367AD1"/>
<path d="M707.856 207.323L711.043 217.483L709.806 217.871L706.618 207.711L707.856 207.323Z" fill="#30358C"/>
<path d="M701.207 216.39C703.187 216.39 705.03 215.571 706.396 214.069C708.034 212.226 708.581 209.7 707.83 207.311L667.205 77.7491C666.318 74.8138 663.586 72.8342 660.514 72.8342V74.1312C663.04 74.1312 665.225 75.7695 665.976 78.1587L706.601 207.72C707.215 209.632 706.737 211.748 705.44 213.25C704.074 214.751 702.094 215.434 700.114 215.093L616.544 199.051L616.271 200.28L699.841 216.321C700.319 216.39 700.729 216.39 701.207 216.39Z" fill="#30358C"/>
<path d="M679.427 217.686H689.668C691.17 217.686 692.399 216.458 692.399 214.956V178.367C692.399 176.866 691.17 175.637 689.668 175.637H679.427C677.925 175.637 676.696 176.866 676.696 178.367V214.956C676.696 216.458 677.925 217.686 679.427 217.686Z" fill="#C8E9F7"/>
<path d="M188.587 72.9023L197.736 195.843C198.214 202.054 198.419 208.335 198.419 214.615V292.434H162.028V205.195V72.9023H188.587Z" fill="#367AD1"/>
<path d="M193.094 72.9023L205.452 195.843C205.93 202.054 206.135 208.335 206.135 214.615V292.434H172.065V205.195L169.743 72.9023H193.094Z" fill="url(#paint3_linear_1494_403)"/>
<path d="M214.874 195.843V292.434H287.247V195.843L283.97 79.0461C283.901 75.633 281.034 72.8342 277.62 72.8342H230.236C226.89 72.8342 224.159 75.3599 223.886 78.7048L214.874 195.843Z" fill="url(#paint4_linear_1494_403)"/>
<path d="M313.533 72.9023L304.384 195.843C303.906 202.054 303.701 208.335 303.701 214.615V292.434H340.093V205.195V72.9023H313.533Z" fill="url(#paint5_linear_1494_403)"/>
<path d="M309.027 72.9023L296.669 195.843C296.191 202.054 295.986 208.335 295.986 214.615V292.434H330.056V205.195L332.377 72.9023H309.027Z" fill="url(#paint6_linear_1494_403)"/>
<path d="M731.931 292.161H743.197V303.629H731.931V292.161Z" fill="white"/>
<path d="M729.951 239.326L730.907 243.831C731.59 246.971 731.931 250.248 731.931 253.456V274.549C731.931 276.051 733.16 277.28 734.662 277.28H743.197V251.067C743.197 245.538 741.148 240.213 737.53 236.049H732.614C730.839 235.981 729.541 237.619 729.951 239.326Z" fill="#C8E9F7"/>
<path d="M699.432 276.597H743.197V277.894H700.661C700.251 277.484 699.841 277.006 699.432 276.597Z" fill="#30358C"/>
<path d="M1.50963 349.296C1.0317 346.156 1.71448 344.381 1.44137 341.241C1.23654 339.262 0.690378 335.985 0.212442 333.664C0.00761223 332.708 -0.606894 329.841 1.98762 328.681C4.51386 327.589 6.49383 327.589 8.3373 326.565C10.3856 325.473 13.4581 323.766 14.4139 323.152C17.3498 321.24 19.6713 322.128 21.4465 324.039C22.5389 325.2 22.1975 327.589 20.6271 328.954C18.8519 330.592 16.9402 331.753 15.165 333.596C13.1849 335.644 11.205 343.972 11.2732 347.316C11.2732 349.979 15.4381 356.464 13.185 357.556C10.9319 358.58 6.22079 356.327 4.65043 354.962C2.94351 353.46 1.78274 351.139 1.50963 349.296Z" fill="#1E2859"/>
<path d="M110.411 345.678C109.933 339.125 111.23 337.145 115.804 338.374C118.058 338.989 119.628 341.173 120.174 342.402C121.471 345.269 122.7 347.112 125.636 349.501C128.231 351.549 131.371 352.846 134.512 354.006C136.834 354.894 142.364 355.508 143.047 357.965C143.798 360.832 137.926 360.832 134.103 360.832C129.118 360.832 122.769 358.443 119.628 358.102C117.921 357.897 115.395 358.238 113.347 357.965C109.591 357.488 109.182 356.532 109.523 353.528C109.591 351.617 110.615 348.272 110.411 345.678Z" fill="#1E2859"/>
<path d="M53.6048 153.588C53.9462 147.172 55.3117 145.738 61.3883 144.51C66.4408 143.486 74.2242 142.462 80.9836 142.735C89.0402 143.008 100.033 144.441 103.378 145.602C108.704 147.513 110.001 150.517 110.274 153.452C110.752 158.025 107.407 205.058 105.29 212.703C103.651 218.779 99.4865 221.236 93.0003 221.509C88.4258 221.714 70.4008 221.509 63.5731 221.1C56.3358 220.69 54.7655 216.594 54.6289 210.383C54.4924 200.416 53.4 157.548 53.6048 153.588Z" fill="#5EDFEB"/>
<path d="M149.328 237.346C141.203 232.499 129.733 224.171 121.54 218.642C115.395 214.478 110.342 208.881 108.021 201.986C105.29 193.931 96.2774 169.63 94.707 161.575C94.0926 158.435 94.2974 154.339 95.3215 151.267C96.4822 147.922 100.374 144.851 103.72 145.67C111.981 147.718 113.005 154.68 114.439 162.053C116.214 171.2 118.877 189.904 120.106 196.184C120.925 200.484 124.202 206.218 127.411 209.085C133.01 214.069 150.557 228.745 152.332 230.315C154.995 232.704 155.473 234.479 154.449 236.663C153.698 238.097 151.581 238.711 149.328 237.346Z" fill="#5EDFEB"/>
<path d="M64.2558 166.9C67.1917 169.357 63.6413 176.866 64.8703 182.327C66.4406 189.358 63.9144 191.474 65.7579 195.638C66.5772 197.549 68.011 197.549 68.8303 195.57C69.7862 193.18 70.3324 186.627 70.3324 183.965C70.4007 179.46 71.7662 171.2 73.1317 173.931C73.6097 174.818 73.678 180.211 73.678 181.985C73.678 187.173 73.3366 198.164 69.3765 203.693C67.6013 206.15 63.4365 210.656 57.8378 211.338C56.3357 211.543 55.3798 211.338 54.6971 210.997C54.6971 210.792 54.6971 210.656 54.6971 210.451C54.5605 203.283 53.946 179.255 53.7412 164.715C57.0185 163.896 62.1392 165.125 64.2558 166.9Z" fill="#16BBD1"/>
<path d="M12.434 320.762C17.2816 315.575 39.335 290.795 41.9978 287.792C46.5723 282.604 49.3716 275.709 49.6447 268.201C50.1227 256.323 51.2833 219.12 51.2151 214.888C51.2151 213.591 51.4199 210.587 51.8296 209.973C52.922 208.266 53.673 210.041 56.1992 210.246C60.5689 210.587 63.0952 208.266 65.28 206.56C71.6297 201.713 71.698 193.931 72.1759 186.695C72.4491 182.668 72.7222 176.251 72.6539 172.77C72.4491 161.985 71.698 155.773 68.6938 151.336C66.3724 147.991 63.7097 145.738 60.6372 145.192C59.6813 145.056 59.6131 144.851 60.1593 144.646C60.6372 144.509 63.3683 143.895 64.3924 143.895C67.3966 143.895 70.947 146.557 73.5415 150.653C76.2043 154.885 77.365 162.053 77.8429 170.79C83.2367 170.79 91.1568 170.79 96.2775 170.79C97.0286 161.302 96.2775 150.585 94.9803 146.079C94.5023 144.305 94.0927 143.485 94.8437 143.554C95.5265 143.622 97.5748 143.895 98.121 144.032C99.0086 144.168 99.1451 144.305 99.5548 145.602C101.398 151.131 101.603 165.602 101.535 173.384C101.535 177.617 101.808 192.498 101.876 197.344C101.944 200.757 101.808 203.966 103.242 207.174C104.129 209.222 106.041 210.314 107.407 211.133C108.704 211.884 108.977 212.976 109.113 214.478C109.455 220.28 109.523 228.131 110.479 231.407C111.64 235.571 112.596 238.78 114.576 243.763C118.263 253.115 122.427 260.897 125.91 269.839C128.914 277.757 128.504 284.788 127.48 293.048C126.251 302.81 122.496 333.118 121.676 340.695C121.335 344.108 116.419 344.313 113.142 344.586C105.563 345.337 106.724 340.559 106.724 336.19C106.656 331.616 107.065 312.776 107.133 307.656C107.27 297.28 105.768 293.116 103.583 286.973C100.442 278.099 90.3375 258.78 88.5623 255.231C87.9478 253.865 86.4457 250.384 83.9878 250.589C81.1884 250.794 81.1201 252.705 79.9594 255.913C78.5256 259.941 73.7463 276.392 72.0394 281.716C69.5132 289.43 65.4166 293.799 63.0269 296.12C56.3358 302.673 32.3708 325.131 23.0852 333.323C20.6955 335.439 19.1934 334.961 16.5306 333.459C15.0968 332.64 11.3416 329.227 10.1809 327.179C8.67886 324.585 9.77123 323.698 12.434 320.762Z" fill="#3448AD"/>
<path d="M81.1202 252.159C82.0078 249.975 82.4858 248.951 83.4416 246.835C83.783 246.084 84.7389 245.333 85.8313 245.196C87.1285 244.992 94.7072 244.514 96.3458 244.514C99.6231 250.521 97.0969 257.688 98.7355 262.876C99.7597 266.221 103.242 268.61 104.334 271.341C106.178 275.983 105.768 279.942 106.451 284.857C107.065 289.225 110.138 292.639 110.889 296.803C111.776 301.99 109.045 306.769 108.772 312.981C108.499 318.442 109.045 323.63 108.977 326.155C108.977 328.271 107.953 332.162 106.587 333.255C106.656 326.224 106.929 312.093 106.997 307.793C107.134 297.417 105.631 293.253 103.447 287.109C100.306 278.235 90.201 258.917 88.4258 255.367C87.8113 254.002 86.3092 250.521 83.8513 250.726C81.9395 250.862 81.3251 251.749 80.7106 253.319C80.9154 252.842 81.0519 252.432 81.1202 252.159Z" fill="#1F367A"/>
<path d="M138.404 287.45L139.906 267.518H134.103V287.45H138.404Z" fill="#E68922"/>
<path d="M91.2934 287.45L92.8638 267.518H87.0602V287.45H91.2934Z" fill="#E68922"/>
<path d="M94.3657 193.931H128.709C130.757 193.931 132.532 195.296 133.079 197.276L138.814 219.393H104.471L98.7354 197.276C98.2575 195.296 96.414 193.931 94.3657 193.931Z" fill="#FFD980"/>
<path d="M97.0968 112.221C96.0043 107.853 90.6105 105.395 85.558 105.054C80.3008 104.713 75.5897 107.511 73.7462 111.266C72.0393 114.815 71.4931 120.754 75.9994 129.696C77.0918 131.813 76.5456 132.7 76.2042 135.021C76.1359 135.567 75.5214 138.434 75.3166 139.39C74.5656 142.598 73.1318 141.779 72.6538 142.939C70.9469 147.308 79.618 153.725 86.787 153.998C93.4781 154.271 93.2733 146.626 92.8636 144.851C92.5222 143.485 91.2933 143.212 90.6105 142.803C89.4498 142.052 89.3133 141.438 89.3815 140.072C89.3815 139.799 89.4498 139.526 89.4498 139.185C89.5864 137.683 89.7912 133.929 90.7471 133.11C91.5664 132.427 91.976 132.154 92.9319 131.471C93.7512 130.857 95.0485 128.536 95.3899 127.034C95.9361 124.918 95.7995 121.164 96.0043 118.979C96.1409 116.317 97.7112 114.884 97.0968 112.221Z" fill="#FEC1B5"/>
<path d="M93.5464 130.789C93.3416 131.062 93.1367 131.335 92.8636 131.54C91.976 132.222 91.5664 132.495 90.6788 133.178C90.2008 133.588 89.8595 134.68 89.7229 135.908C89.3815 135.977 88.8353 135.977 87.9477 135.84C85.1484 135.431 82.349 132.359 81.4614 130.925C80.5056 129.424 79.4814 125.806 79.8911 125.191C80.0959 124.85 82.0077 127.58 82.2808 127.99C85.1484 131.54 90.1326 131.949 93.5464 130.789Z" fill="#E8988C"/>
<path d="M95.9361 119.048C95.9361 119.389 95.8678 119.73 95.8678 120.072C95.5947 119.184 95.7995 118.092 95.1168 117.204C94.434 116.317 93.4099 115.908 92.3857 115.703C89.8595 115.088 86.3091 115.361 83.7146 115.225C81.598 115.157 78.6622 114.679 80.5056 112.358C83.4415 108.535 90.8836 107.58 95.1168 109.627C95.5947 109.832 96.0044 110.105 96.3457 110.447C96.6871 110.993 96.892 111.607 97.0968 112.221C97.7113 114.884 96.1409 116.317 95.9361 119.048Z" fill="#E8988C"/>
<path d="M96.2091 107.102C94.2291 104.576 90.5422 102.255 86.1725 101.982C79.9593 101.573 73.1999 104.03 72.2441 107.921C71.9027 109.423 72.0392 110.856 71.0834 111.812C68.4206 114.542 70.6737 120.276 71.5613 122.393C72.722 125.328 75.6579 131.54 76.682 131.13C77.2965 130.857 78.2524 128.809 78.1841 127.922C78.0476 126.01 77.9793 123.963 77.6379 122.051C77.4331 120.686 77.4331 120.618 78.0476 119.526C78.2524 120.003 78.7986 121.505 78.7986 121.505L80.7786 120.618C82.4173 118.16 83.3049 114.406 82.9635 110.788C83.3049 110.31 84.0559 109.832 84.5338 109.628C87.7428 108.262 93.2732 109.628 95.4581 111.539C96.687 112.631 96.7553 113.314 96.7553 114.269C96.7553 114.884 96.4139 116.385 96.9602 116.249C97.5064 116.112 98.1892 114.611 98.2574 112.495C98.4623 110.583 97.0967 108.194 96.2091 107.102Z" fill="#1E2859"/>
<path d="M78.7987 120.549C79.3449 122.529 78.7304 124.372 77.5015 124.645C76.2725 124.986 74.8387 123.621 74.2925 121.71C73.7463 119.73 74.3608 117.887 75.5897 117.614C76.887 117.273 78.3208 118.57 78.7987 120.549Z" fill="#FEC1B5"/>
<path d="M78.0476 102.392C81.8711 101.231 88.4257 100.617 91.4298 102.46C95.5947 104.986 97.165 107.443 98.0526 110.583C98.2574 111.402 97.7795 111.948 97.3016 111.675C94.2974 110.31 90.8153 110.105 87.1967 110.788C84.5339 111.266 82.3491 112.426 80.0277 113.86C76.409 116.044 74.2242 117.887 71.698 120.754C70.8104 121.778 70.1276 120.345 69.9228 119.525C68.3524 112.836 68.3524 105.259 78.0476 102.392Z" fill="#3448AD"/>
<path d="M80.7786 112.972C81.0517 111.607 82.9635 108.467 88.2207 106.829C90.269 106.214 93.6146 104.439 95.7311 103.757C96.7553 103.415 96.9601 103.62 96.8236 103.62C96.4822 103.689 95.7312 103.689 94.5022 104.371C92.4539 105.463 91.4297 107.17 90.2007 108.057C88.7669 109.081 87.538 109.9 86.0359 110.651C84.5338 111.402 82.0076 112.426 81.2565 112.904C80.8469 113.109 80.7103 113.177 80.7786 112.972Z" fill="#7AC9EB"/>
<path d="M80.9153 112.972C83.9195 111.266 88.5623 110.037 91.9078 106.214C95.1168 102.596 99.8279 102.733 102.627 105.054C103.924 106.078 105.836 108.535 104.949 110.788C104.198 112.836 100.715 113.996 98.8038 114.201C97.8479 114.338 97.643 114.201 97.3017 113.723C96.6872 113.041 95.663 111.948 93.8878 111.266C91.2933 110.31 87.265 110.788 84.7388 111.607C83.9877 111.88 82.076 112.699 81.2567 113.177C80.7788 113.45 80.5056 113.245 80.9153 112.972Z" fill="#1F367A"/>
<path d="M93.6831 125.532C93.6148 125.874 92.5223 126.42 91.1568 126.215C89.7913 126.01 88.9037 124.918 89.0402 124.577C89.1768 124.304 89.9961 124.986 91.3616 125.191C92.7272 125.396 93.7513 125.191 93.6831 125.532Z" fill="white"/>
<path d="M134.99 172.906C135.81 170.244 138.268 168.401 141.067 168.401H287.315V219.393H138.882L133.147 197.276C132.601 195.296 130.825 193.931 128.777 193.931H128.641L134.99 172.906Z" fill="url(#paint7_linear_1494_403)"/>
<path d="M97.1649 219.393H287.247V243.49H97.0967C94.5705 243.49 92.5904 241.442 92.5904 238.984V223.967C92.6587 221.441 94.6387 219.393 97.1649 219.393Z" fill="url(#paint8_linear_1494_403)"/>
<path d="M85.7628 193.931H94.3657C96.414 193.931 98.1891 195.296 98.7353 197.276L104.471 219.393H101.125V243.49H287.247V267.586H101.125H85.6945C83.1683 267.586 81.1883 265.538 81.1883 263.081V198.505C81.2566 195.911 83.2366 193.931 85.7628 193.931Z" fill="#FEB840"/>
<path d="M93.4098 221.441C92.9319 222.124 92.6588 223.011 92.6588 223.898V238.916C92.6588 241.442 94.707 243.421 97.165 243.421H287.247V254.889H81.1883V237.278L93.4098 221.441Z" fill="url(#paint9_linear_1494_403)"/>
<path d="M85.7628 193.453H94.3657H128.231L134.512 172.77C135.4 169.903 137.994 167.923 140.998 167.923H287.247V168.879H140.998C138.404 168.879 136.151 170.517 135.4 173.043L129.255 193.453C131.303 193.658 133.078 195.092 133.556 197.14L133.625 197.413H132.669C132.191 195.638 130.62 194.409 128.777 194.409H128.64H97.3016C98.1892 195.092 98.8719 196.047 99.2133 197.208L104.88 218.983H108.158H138.267H139.223H149.055H287.247V219.939H97.0967C94.8436 219.939 93.0684 221.782 93.0684 223.967V238.984C93.0684 241.237 94.9119 243.012 97.0967 243.012V243.967C94.3657 243.967 92.1126 241.715 92.1126 238.984V223.967C92.1126 221.236 94.3657 218.983 97.0967 218.983H103.856L98.2574 197.481C97.7795 195.706 96.2092 194.477 94.3657 194.477H85.7628C83.5097 194.477 81.7345 196.32 81.7345 198.505V263.081C81.7345 265.334 83.578 267.108 85.7628 267.108V268.064C83.0318 268.064 80.7787 265.811 80.7787 263.081V198.505C80.7787 195.706 83.0318 193.453 85.7628 193.453Z" fill="white"/>
<path d="M97.1649 219.393H287.247V224.103H97.0967C94.5705 224.103 92.5904 226.151 92.5904 228.608V224.103V223.898C92.6587 221.441 94.6387 219.393 97.1649 219.393Z" fill="#FFD980"/>
<path d="M80.2326 243.08C73.8829 236.937 59.2035 222.875 53.1951 216.048C48.6206 210.997 43.7047 205.945 44.3192 197.617C45.2068 186.491 47.3233 166.763 48.8937 158.64C49.6447 154.749 50.0544 149.22 53.3999 147.445C56.2676 145.875 57.9745 144.714 60.0228 145.943C66.7822 149.902 65.4849 156.797 64.7338 163.418C63.778 172.087 61.32 189.289 60.9786 195.16C60.7738 199.188 63.0269 205.604 65.1435 208.949C68.6939 214.547 82.9637 235.025 84.2609 236.732C86.3775 239.599 86.4458 241.237 85.1485 243.217C84.4658 244.241 81.9395 244.787 80.2326 243.08Z" fill="#5EDFEB"/>
<path d="M80.7104 237.756C81.6663 236.937 83.578 236.8 84.807 237.619C86.3091 238.643 89.5864 240.554 91.4981 241.715C93.2733 242.807 95.1167 242.944 97.165 242.671C99.8278 242.329 101.466 242.398 102.286 242.944C103.173 243.558 105.836 244.718 103.72 245.606C101.535 246.562 96.0043 248.678 94.0243 249.36C93.0685 249.702 91.5664 250.043 90.4739 249.77C88.2891 249.156 86.1725 248.405 84.8753 247.859C83.3732 247.312 82.0077 244.992 80.7104 243.558C79.3449 241.988 78.7304 239.462 80.7104 237.756Z" fill="#FEC1B5"/>
</g>
<defs>
<linearGradient id="paint0_linear_1494_403" x1="340.064" y1="434.944" x2="340.064" y2="77.9732" gradientUnits="userSpaceOnUse">
<stop stop-color="#30358C"/>
<stop offset="0.236" stop-color="#303990"/>
<stop offset="0.4805" stop-color="#31469D"/>
<stop offset="0.7289" stop-color="#335AB1"/>
<stop offset="0.9785" stop-color="#3677CE"/>
<stop offset="1" stop-color="#367AD1"/>
</linearGradient>
<linearGradient id="paint1_linear_1494_403" x1="610.884" y1="16.6626" x2="405.277" y2="372.859" gradientUnits="userSpaceOnUse">
<stop stop-color="#7AC9EB"/>
<stop offset="0.2201" stop-color="#76C5EA"/>
<stop offset="0.4481" stop-color="#6CB8E6"/>
<stop offset="0.6798" stop-color="#5AA4DF"/>
<stop offset="0.9126" stop-color="#4187D5"/>
<stop offset="1" stop-color="#367AD1"/>
</linearGradient>
<linearGradient id="paint2_linear_1494_403" x1="652.003" y1="215.259" x2="652.003" y2="38.7151" gradientUnits="userSpaceOnUse">
<stop stop-color="#30358C"/>
<stop offset="0.236" stop-color="#303990"/>
<stop offset="0.4805" stop-color="#31469D"/>
<stop offset="0.7289" stop-color="#335AB1"/>
<stop offset="0.9785" stop-color="#3677CE"/>
<stop offset="1" stop-color="#367AD1"/>
</linearGradient>
<linearGradient id="paint3_linear_1494_403" x1="187.956" y1="72.9122" x2="187.956" y2="292.434" gradientUnits="userSpaceOnUse">
<stop stop-color="#C8E9F7"/>
<stop offset="0.2215" stop-color="#C4E7F6"/>
<stop offset="0.451" stop-color="#B7E2F4"/>
<stop offset="0.6843" stop-color="#A3DAF1"/>
<stop offset="0.9186" stop-color="#86CEED"/>
<stop offset="1" stop-color="#7AC9EB"/>
</linearGradient>
<linearGradient id="paint4_linear_1494_403" x1="305.405" y1="281.972" x2="140.421" y2="-3.84731" gradientUnits="userSpaceOnUse">
<stop stop-color="#1E2859"/>
<stop offset="0.1478" stop-color="#202E62"/>
<stop offset="0.3887" stop-color="#253F7A"/>
<stop offset="0.6929" stop-color="#2D5AA2"/>
<stop offset="1" stop-color="#367AD1"/>
</linearGradient>
<linearGradient id="paint5_linear_1494_403" x1="321.887" y1="292.434" x2="321.887" y2="72.9122" gradientUnits="userSpaceOnUse">
<stop stop-color="#30358C"/>
<stop offset="1" stop-color="#367AD1"/>
</linearGradient>
<linearGradient id="paint6_linear_1494_403" x1="314.168" y1="72.9122" x2="314.168" y2="361.897" gradientUnits="userSpaceOnUse">
<stop stop-color="#C8E9F7"/>
<stop offset="0.2215" stop-color="#C4E7F6"/>
<stop offset="0.451" stop-color="#B7E2F4"/>
<stop offset="0.6843" stop-color="#A3DAF1"/>
<stop offset="0.9186" stop-color="#86CEED"/>
<stop offset="1" stop-color="#7AC9EB"/>
</linearGradient>
<linearGradient id="paint7_linear_1494_403" x1="116.711" y1="159.388" x2="280.297" y2="218.033" gradientUnits="userSpaceOnUse">
<stop stop-color="#FEB840"/>
<stop offset="0.3685" stop-color="#FEB43D"/>
<stop offset="0.7497" stop-color="#FFA734"/>
<stop offset="1" stop-color="#FF9B2B"/>
</linearGradient>
<linearGradient id="paint8_linear_1494_403" x1="89.221" y1="218.771" x2="279.122" y2="242.165" gradientUnits="userSpaceOnUse">
<stop stop-color="#FEB840"/>
<stop offset="0.2503" stop-color="#FEAC37"/>
<stop offset="0.6315" stop-color="#FF9F2E"/>
<stop offset="1" stop-color="#FF9B2B"/>
</linearGradient>
<linearGradient id="paint9_linear_1494_403" x1="336.311" y1="238.185" x2="130.279" y2="238.185" gradientUnits="userSpaceOnUse">
<stop stop-color="#FF9B2B"/>
<stop offset="0.1907" stop-color="#F79528"/>
<stop offset="0.6022" stop-color="#EA8C23"/>
<stop offset="1" stop-color="#E68922"/>
</linearGradient>
<clipPath id="clip0_1494_403">
<rect width="1066" height="328" fill="white" transform="translate(0 40)"/>
</clipPath>
</defs>
</svg>
