<svg width="1045" height="383" viewBox="0 0 1045 383" fill="none" xmlns="http://www.w3.org/2000/svg">
<path d="M907.076 360.932C953.8 360.932 999.697 360.932 1044.58 360.932V371.485C999.761 371.548 953.863 371.548 907.076 371.548C406.083 371.548 0 368.306 0 364.238C0 360.233 406.147 360.932 907.076 360.932Z" fill="#D1CDCA"/>
<path d="M203.995 235.637C202.469 234.047 202.597 231.25 205.012 227.817C206.601 225.529 220.777 208.302 226.435 200.927C229.486 196.923 231.839 189.485 231.839 184.336C231.839 176.898 231.457 154.776 231.394 143.842C231.33 135.006 230.885 126.233 238.895 121.72C242.391 119.749 247.731 122.991 249.765 126.615C251.609 129.857 252.689 134.497 252.689 138.248C252.689 147.91 247.922 177.979 246.587 187.959C245.442 196.541 240.993 204.233 235.017 210.463C227.071 218.854 218.171 227.754 210.161 235.382C207.936 237.544 205.203 236.908 203.995 235.637Z" fill="#7FD9EB"/>
<path d="M216.391 224.448C219.951 220.697 226.499 213.069 229.995 208.81C234.445 203.406 238.005 199.274 239.149 192.409C240.293 185.289 241.056 165.646 241.12 162.15C241.183 159.162 241.628 150.071 244.807 149.626C248.176 149.118 250.21 152.169 251.291 154.776C249.765 166.981 247.477 181.602 246.65 188.022C245.506 196.604 241.056 204.296 235.081 210.526C227.135 218.917 218.235 227.817 210.225 235.445C209.462 236.145 208.699 236.526 207.937 236.717C207.746 236.526 207.619 236.272 207.491 235.89C207.046 233.92 213.276 227.69 216.391 224.448Z" fill="#37C0DB"/>
<path d="M302.719 196.732C299.795 196.986 258.602 200.864 253.262 200.61C251.99 200.546 249.892 199.847 249.384 198.003C248.621 195.27 249.765 181.793 248.43 174.101C247.095 166.346 238.45 140.918 236.797 131.446C235.971 126.678 235.844 123.627 239.467 121.72C243.027 119.813 253.707 116.698 257.521 115.871C265.213 114.282 273.858 113.519 281.677 113.901C285.237 114.091 291.276 114.791 293.946 117.397C296.171 119.558 297.951 122.991 298.968 126.042C301.638 133.925 301.066 153.886 301.384 161.006C301.638 167.871 302.782 172.003 303.99 177.152C305.198 182.365 306.024 185.798 307.296 190.82C308.249 194.698 307.105 196.351 302.719 196.732Z" fill="#7FD9EB"/>
<path d="M284.919 179.695C288.225 176.58 293.946 178.932 295.281 175.054C296.68 171.113 293.755 164.12 292.039 159.416C290.704 155.729 285.364 146.066 291.34 146.639C293.819 146.893 297.887 147.465 301.257 148.609C301.384 153.695 301.32 158.335 301.447 161.069C301.702 167.934 302.846 172.066 304.054 177.216C305.262 182.428 306.088 185.861 307.359 190.883C308.313 194.697 307.105 196.35 302.719 196.732C301.702 196.795 295.663 197.367 288.098 198.066C286.954 197.304 286 196.287 285.237 195.015C280.787 188.277 281.677 182.746 284.919 179.695Z" fill="#37C0DB"/>
<path d="M212.641 357.944C212.641 361.377 212.259 363.094 207.873 363.221C205.521 363.284 202.152 362.649 200.181 362.649C196.494 362.712 189.374 364.111 183.653 363.602C179.203 363.221 172.528 362.585 173.673 359.407C174.69 356.609 181.174 356.482 183.844 355.783C187.531 354.766 191.281 353.685 194.46 351.524C198.02 349.172 199.736 347.201 201.453 344.023C203.995 339.255 204.758 335.25 208.636 335.187C212.895 335.123 214.039 338.174 212.259 348.79C211.814 351.778 212.641 355.72 212.641 357.944Z" fill="#1E2859"/>
<path d="M381.291 353.113C379.638 354.702 374.426 357.436 371.819 356.228C369.149 354.957 373.409 347.138 373.218 343.959C373.027 339.954 370.103 329.91 367.751 327.431C365.589 325.206 363.364 323.808 361.203 321.837C359.296 320.12 358.724 317.323 359.868 315.861C361.712 313.573 364.318 312.492 367.814 314.781C368.959 315.543 372.582 317.578 374.998 318.913C377.159 320.121 379.384 320.121 382.372 321.455C385.423 322.854 384.978 326.287 384.787 327.431C384.342 330.164 383.961 334.169 383.961 336.521C383.898 340.336 384.787 342.497 384.533 346.248C384.342 348.536 383.198 351.27 381.291 353.113Z" fill="#1E2859"/>
<path d="M371.311 312.555C367.115 309.25 328.02 277.91 325.286 274.986C322.044 271.553 318.484 265.005 317.849 260.174C316.26 249.176 315.942 225.846 315.306 210.399C315.115 205.504 312.382 200.673 306.851 197.558C303.228 195.46 298.269 194.506 294.964 191.9C291.849 189.484 289.115 184.971 288.162 181.22C286.255 173.592 282.822 157.636 282.059 149.308C281.423 143.079 280.915 132.971 284.03 124.834C285.555 120.829 289.179 117.015 290.387 115.807C291.149 115.044 291.34 114.663 290.641 114.536C289.624 114.281 287.717 114.027 286.763 113.9C285.682 113.773 284.92 114.218 284.093 114.917C281.932 116.951 278.753 121.783 277.482 126.423C275.829 132.526 275.257 139.519 275.893 147.528C270.362 147.91 260.318 148.673 254.915 149.118C251.673 137.103 249.893 126.233 251.101 118.668C251.291 117.46 251.418 116.951 250.719 117.206C249.829 117.524 247.922 118.096 246.714 118.477C245.697 118.795 245.443 120.321 245.316 120.766C243.726 126.487 247.414 144.477 249.575 151.66C249.575 151.66 253.262 174.736 253.516 179.695C253.77 184.081 254.343 188.531 253.008 192.917C252.436 194.824 250.656 197.876 249.384 199.211C247.096 201.563 244.744 202.135 244.553 204.805C244.362 206.775 244.044 215.103 244.044 218.917C240.548 230.995 227.008 256.169 223.384 263.352C218.044 273.778 216.519 284.458 214.929 290.497C211.878 302.193 208.382 315.734 204.504 332.262C203.995 334.487 203.042 339.827 203.868 341.607C204.949 343.895 207.237 345.421 209.272 346.374C212.895 348.027 217.536 348.854 219.697 345.294C220.651 343.705 223.702 334.995 224.592 332.834C229.36 320.438 232.856 312.428 237.814 299.841C240.675 292.594 246.714 283.186 251.99 274.859C256.822 267.23 269.663 248.604 272.206 244.854C275.193 240.467 280.215 240.022 282.885 246.125C285.428 251.846 292.993 273.46 295.663 279.054C298.333 284.585 302.973 290.942 308.758 295.137C316.005 300.414 354.02 326.541 360.123 329.274C363.428 330.736 365.145 329.02 366.48 328.193C368.069 327.176 369.594 325.142 371.057 322.536C371.819 321.201 373.027 318.594 373.281 316.687C373.218 314.335 372.074 313.191 371.311 312.555Z" fill="#3448AD"/>
<path d="M282.059 244.981C279.262 240.023 274.685 240.658 271.888 244.79C269.345 248.541 256.567 267.167 251.672 274.795C246.396 283.123 240.357 292.531 237.497 299.778C234.509 307.343 232.093 313.191 229.614 319.421C229.36 319.04 229.169 318.468 229.169 317.705C229.169 314.844 231.902 309.822 233.11 304.673C234.127 300.477 234.763 293.04 237.115 287.763C238.259 285.157 243.472 280.644 245.443 276.067C247.668 270.854 247.731 264.942 250.783 260.111C252.563 257.25 256.949 255.279 258.856 251.719C261.717 246.189 261.335 235.636 265.022 231.949C266.866 232.267 274.113 233.729 275.384 233.983C276.655 234.238 277.545 235.318 277.927 236.145C279.452 239.26 280.152 241.23 281.677 244.155C281.932 244.282 282.059 244.663 282.059 244.981Z" fill="#1F367A"/>
<path d="M327.893 180.903C324.396 169.969 311.746 134.37 308.631 126.741C306.851 122.292 302.401 117.651 297.316 116.507C294.773 115.935 292.739 115.426 291.594 115.235C291.404 115.172 291.34 115.299 291.213 115.49C288.797 118.223 284.983 121.91 284.983 126.296C284.983 130.81 285.873 136.722 288.988 143.079C293.565 152.36 302.719 170.096 305.453 175.372C309.33 182.937 307.423 185.289 300.939 188.595C293.501 192.409 265.022 205.695 262.416 206.521C259.492 207.475 258.538 210.145 259.237 212.751C259.81 214.913 262.734 215.93 265.594 215.358C278.181 212.751 309.33 203.597 320.01 199.847C329.482 196.541 331.135 190.883 327.893 180.903Z" fill="#7FD9EB"/>
<path d="M249.765 80.8442C250.973 75.8857 257.139 73.0887 262.924 72.7073C268.9 72.3258 274.303 75.5679 276.401 79.8271C278.372 83.8955 278.944 90.6339 273.858 100.805C272.65 103.221 273.35 104.365 273.477 107.035C273.54 107.671 273.54 108.116 273.54 108.497C273.795 109.578 273.985 110.595 274.303 111.739C274.939 114.345 277.037 113.9 277.545 115.235C279.452 120.194 269.853 128.267 261.653 128.585C254.025 128.903 254.279 120.194 254.724 118.16C255.105 116.57 256.504 116.316 257.33 115.808C258.602 114.981 258.792 114.218 258.729 112.693C258.729 112.375 258.665 112.057 258.665 111.675C258.474 109.959 258.284 105.7 257.139 104.746C256.186 103.984 255.741 103.666 254.66 102.903C253.707 102.204 252.245 99.5337 251.863 97.8173C251.291 95.4016 251.418 91.0789 251.227 88.6633C250.782 85.6119 249.002 83.9591 249.765 80.8442Z" fill="#FEC1B5"/>
<path d="M266.548 98.8978C266.929 98.4528 269.027 95.3379 269.281 95.7193C269.726 96.4186 268.582 100.551 267.501 102.267C266.484 103.856 263.369 107.416 260.127 107.861C259.11 107.988 258.474 108.052 258.093 107.988C257.902 106.59 257.584 105.318 257.012 104.873C256.059 104.111 255.614 103.793 254.533 103.03C254.215 102.776 253.961 102.521 253.77 102.203C257.648 103.348 263.306 102.903 266.548 98.8978Z" fill="#E8988C"/>
<path d="M249.765 80.8444C249.956 80.1451 250.21 79.4459 250.592 78.8737C250.973 78.5559 251.482 78.2381 251.99 77.9838C256.822 75.6953 265.276 76.776 268.646 81.1623C270.68 83.8322 267.311 84.3407 264.959 84.4043C262.034 84.4679 257.966 84.2136 255.105 84.9129C253.897 85.2307 252.753 85.6121 251.99 86.6293C251.291 87.5828 251.418 88.8542 251.164 89.8713C251.164 89.4263 251.1 89.0449 251.1 88.6635C250.783 85.6122 249.003 83.9593 249.765 80.8444Z" fill="#E8988C"/>
<path d="M250.719 75.0593C252.944 72.1986 257.203 69.5287 262.162 69.2109C269.218 68.7659 276.973 71.563 278.054 76.0128C278.435 77.7292 278.308 79.382 279.389 80.4627C282.44 83.5776 279.834 90.1253 278.88 92.5409C277.545 95.9101 274.24 102.903 273.032 102.458C272.269 102.204 271.252 99.7879 271.316 98.7708C271.443 96.5459 271.57 94.2573 271.951 92.096C272.206 90.5067 272.206 90.5067 271.443 89.1718C271.188 89.7439 270.553 91.4603 270.553 91.4603L268.328 90.4432C266.421 87.6461 265.467 83.3869 265.849 79.1913C265.467 78.6828 264.577 78.0471 264.069 77.8564C260.445 76.3307 254.152 77.8564 251.673 80.0813C250.274 81.3527 250.21 82.1155 250.21 83.1962C250.21 83.8955 250.655 85.6119 249.956 85.4212C249.32 85.294 248.558 83.5776 248.43 81.162C248.176 79.0642 249.702 76.3307 250.719 75.0593Z" fill="#1E2859"/>
<path d="M270.553 90.3798C269.981 92.6048 270.616 94.7026 272.079 95.084C273.477 95.4654 275.13 93.9397 275.702 91.7148C276.274 89.4898 275.638 87.392 274.176 87.0106C272.778 86.6292 271.125 88.1549 270.553 90.3798Z" fill="#FEC1B5"/>
<path d="M280.724 89.2989C280.533 90.1889 279.707 91.8417 278.689 90.6975C275.829 87.3918 273.35 85.294 269.218 82.8148C266.548 81.2256 264.068 79.8906 261.017 79.3185C256.885 78.5556 252.88 78.8099 249.447 80.3356C248.875 80.5899 248.367 79.9542 248.621 79.0642C249.638 75.4407 251.482 72.6437 256.186 69.783C259.682 67.6852 267.12 68.3845 271.443 69.7195C282.44 73.0251 282.504 81.607 280.724 89.2989Z" fill="#3448AD"/>
<path d="M267.819 81.6708C266.929 81.1622 264.005 79.9544 262.352 79.128C260.636 78.3016 259.173 77.348 257.584 76.1402C256.186 75.1231 255.041 73.1524 252.689 71.9446C251.291 71.1818 250.464 71.1818 250.083 71.1182C249.892 71.1182 250.147 70.8639 251.354 71.2453C253.834 72.0082 257.648 74.0424 259.936 74.8052C265.975 76.7123 268.137 80.2722 268.455 81.7979C268.391 81.9886 268.2 81.8615 267.819 81.6708Z" fill="#7AC9EB"/>
<path d="M268.137 81.7976C264.704 79.8906 259.428 78.4285 255.613 74.1057C251.926 69.9737 246.65 70.1008 243.344 72.8343C241.882 74.0421 239.721 76.7756 240.675 79.382C241.565 81.7341 245.506 83.0055 247.731 83.3233C248.811 83.4505 249.066 83.3233 249.447 82.8148C250.146 82.0519 251.291 80.7805 253.325 79.9541C256.313 78.8099 260.89 79.382 263.75 80.3356C264.64 80.5898 266.802 81.6069 267.692 82.1155C268.264 82.3698 268.645 82.0519 268.137 81.7976Z" fill="#1F367A"/>
<path d="M266.357 208.937C265.594 207.729 263.179 206.14 261.589 206.776C253.198 210.526 249.257 207.602 245.633 208.556C243.79 209.001 240.293 212.434 240.738 214.913C241.12 217.265 247.159 224.003 250.973 224.194C254.978 224.385 256.631 221.842 257.712 220.253C258.919 218.536 261.716 216.883 264.386 216.184C266.738 215.676 267.883 211.48 266.357 208.937Z" fill="#E8988C"/>
<path d="M253.643 96.0374C253.707 96.4188 254.978 96.991 256.567 96.8003C258.157 96.546 259.11 95.3382 258.983 94.9568C258.856 94.6389 257.902 95.4653 256.313 95.656C254.724 95.9103 253.58 95.656 253.643 96.0374Z" fill="white"/>
<path d="M130.508 347.583H161.594C162.039 347.583 162.484 347.328 162.675 346.947L250.401 193.68C251.1 192.409 251.1 190.883 250.401 189.612C249.638 188.34 248.367 187.578 246.905 187.578H225.418C222.049 187.578 218.87 189.421 217.154 192.345L129.428 345.612C129.173 345.993 129.173 346.502 129.428 346.883C129.682 347.328 130.063 347.583 130.508 347.583ZM160.831 345.04H132.733L219.379 193.68C220.587 191.519 222.939 190.184 225.418 190.184H246.905C247.667 190.184 248.049 190.693 248.176 190.947C248.303 191.201 248.557 191.773 248.176 192.473L160.831 345.04Z" fill="#1E2859"/>
<path d="M89.8235 328.83H101.965V363.729H89.8235C82.1316 363.729 75.9654 355.91 75.9654 346.311C75.9654 336.712 82.1316 328.83 89.8235 328.83Z" fill="#3C3C3B"/>
<path d="M101.966 363.73C94.3118 363.73 88.1074 355.931 88.1074 346.312C88.1074 336.692 94.3118 328.894 101.966 328.894C109.619 328.894 115.824 336.692 115.824 346.312C115.824 355.931 109.619 363.73 101.966 363.73Z" fill="#706F6F"/>
<path d="M101.966 355.211C98.0334 355.211 94.8458 351.227 94.8458 346.311C94.8458 341.396 98.0334 337.412 101.966 337.412C105.898 337.412 109.085 341.396 109.085 346.311C109.085 351.227 105.898 355.211 101.966 355.211Z" fill="#C6C6C6"/>
<path d="M225.545 222.986C225.863 222.986 226.181 222.859 226.435 222.605C226.944 222.096 226.944 221.333 226.435 220.825L213.594 207.729H241.056L245.124 211.988C245.633 212.497 246.396 212.497 246.904 212.052C247.413 211.543 247.413 210.781 246.968 210.272L242.518 205.568C242.264 205.314 241.946 205.187 241.628 205.187H210.606C210.098 205.187 209.653 205.504 209.462 205.949C209.271 206.394 209.398 206.966 209.716 207.348L224.655 222.605C224.909 222.859 225.227 222.986 225.545 222.986Z" fill="#1E2859"/>
<path d="M164.772 248.351L201.706 286.62L230.758 235.891L193.824 197.686L164.772 248.351Z" fill="#F0C397"/>
<path d="M143.095 197.686H193.824L164.772 248.351H114.044L143.095 197.686Z" fill="url(#paint0_linear_1494_605)"/>
<path d="M150.978 286.62H201.706L164.772 248.351H114.044L150.978 286.62Z" fill="#B37A54"/>
<path d="M134.513 301.305L177.931 346.312L212.068 286.62L168.65 241.613L134.513 301.305Z" fill="url(#paint1_linear_1494_605)"/>
<path d="M108.958 241.612H168.65L134.513 301.304H74.8213L108.958 241.612Z" fill="#CC9068"/>
<path d="M118.24 346.312H177.931L134.513 301.304H74.8214L118.24 346.312Z" fill="#B37A54"/>
<path d="M112.836 283.759H135.085L135.721 282.742H113.408L112.836 283.759Z" fill="#F0C397"/>
<path d="M110.929 287.065H133.242L133.814 285.984H111.565L110.929 287.065Z" fill="#F0C397"/>
<path d="M109.085 290.37H131.335L131.97 289.29H109.721L109.085 290.37Z" fill="#F0C397"/>
<path d="M115.188 293.676H129.491L130.063 292.595H115.76L115.188 293.676Z" fill="#F0C397"/>
<path d="M101.965 347.582H187.403C188.102 347.582 188.675 347.01 188.675 346.311C188.675 345.612 188.102 345.04 187.403 345.04H101.965C101.266 345.04 100.694 345.612 100.694 346.311C100.694 347.01 101.266 347.582 101.965 347.582Z" fill="#1E2859"/>
<path d="M130.509 347.582H161.594C162.103 347.582 162.548 347.264 162.739 346.819C162.929 346.374 162.802 345.802 162.484 345.421L137.628 320.12C134.959 317.387 131.208 315.797 127.33 315.797H109.276C107.496 315.797 105.907 316.814 105.208 318.467C104.509 320.12 104.89 321.964 106.098 323.235L129.555 347.137C129.873 347.455 130.191 347.582 130.509 347.582ZM158.543 345.039H131.081L108.005 321.519C107.433 320.947 107.306 320.184 107.624 319.484C107.941 318.785 108.577 318.34 109.34 318.34H127.394C130.572 318.34 133.624 319.612 135.849 321.9L158.543 345.039Z" fill="#1E2859"/>
<path d="M187.467 328.83H199.608V363.729H187.467C179.775 363.729 173.608 355.91 173.608 346.311C173.608 336.712 179.775 328.83 187.467 328.83Z" fill="#3C3C3B"/>
<path d="M199.609 363.73C191.955 363.73 185.75 355.931 185.75 346.312C185.75 336.692 191.955 328.894 199.609 328.894C207.262 328.894 213.467 336.692 213.467 346.312C213.467 355.931 207.262 363.73 199.609 363.73Z" fill="#706F6F"/>
<path d="M199.609 355.211C195.677 355.211 192.489 351.227 192.489 346.311C192.489 341.396 195.677 337.412 199.609 337.412C203.541 337.412 206.729 341.396 206.729 346.311C206.729 351.227 203.541 355.211 199.609 355.211Z" fill="#C6C6C6"/>
<path d="M878.724 277.338C854.695 277.338 835.242 296.791 835.242 320.82C835.242 344.849 854.695 364.302 878.724 364.302H900.91V277.338H878.724Z" fill="#3C3C3B"/>
<path d="M870.177 351.55C853.196 334.569 853.196 307.038 870.177 290.058C887.157 273.077 914.688 273.077 931.668 290.058C948.649 307.038 948.649 334.569 931.668 351.55C914.688 368.53 887.157 368.53 870.177 351.55Z" fill="#575756"/>
<path d="M881.279 340.447C870.431 329.598 870.431 312.009 881.279 301.161C892.128 290.312 909.717 290.312 920.566 301.161C931.414 312.009 931.414 329.598 920.566 340.447C909.717 351.296 892.128 351.296 881.279 340.447Z" fill="#878787"/>
<path d="M826.406 313.064L796.083 310.903C787.501 310.331 780.89 303.147 780.89 294.566V177.407L794.494 22.678C795.574 10.2819 805.936 0.810059 818.332 0.810059H1044.58V313.064H826.406Z" fill="url(#paint2_linear_1494_605)"/>
<path d="M949.986 277.338C925.956 277.338 906.504 296.791 906.504 320.82C906.504 344.849 925.956 364.302 949.986 364.302H972.171V277.338H949.986Z" fill="#3C3C3B"/>
<path d="M881.584 0.810059H1044.58V320.438H1025L889.53 310.903C880.949 310.331 874.337 303.147 874.337 294.566V177.407L869.315 22.8687C868.997 10.7905 872.176 0.810059 881.584 0.810059Z" fill="url(#paint3_linear_1494_605)"/>
<path d="M919.345 313.001V306.39C919.345 277.211 942.993 253.563 972.171 253.563C1001.35 253.563 1025 277.211 1025 306.39V320.439L919.345 313.001Z" fill="#1E2859"/>
<path d="M919.345 306.453V313.065L972.171 316.752V277.338H949.986C939.878 277.338 930.597 280.771 923.223 286.556C923.096 286.937 922.905 287.319 922.778 287.7C922.46 288.463 922.206 289.226 921.951 290.052C921.697 290.815 921.443 291.578 921.252 292.341C921.252 292.404 921.188 292.468 921.188 292.532C921.061 292.913 920.998 293.294 920.871 293.676C920.807 293.994 920.68 294.375 920.616 294.693C920.553 294.82 920.553 294.947 920.553 295.138C920.489 295.329 920.489 295.583 920.426 295.774C920.362 295.964 920.362 296.219 920.299 296.409C920.235 296.6 920.235 296.854 920.171 297.045C920.108 297.299 920.108 297.554 920.044 297.744C919.981 297.935 919.981 298.126 919.981 298.316C919.917 298.571 919.917 298.761 919.854 299.016C919.854 299.206 919.79 299.461 919.79 299.651C919.726 300.096 919.663 300.541 919.663 300.986C919.663 301.177 919.599 301.431 919.599 301.622C919.599 301.813 919.599 301.94 919.536 302.131C919.536 302.258 919.536 302.385 919.536 302.448C919.536 302.83 919.472 303.275 919.472 303.656C919.472 303.911 919.472 304.101 919.472 304.355V304.419C919.472 304.8 919.472 305.182 919.472 305.627C919.345 305.945 919.345 306.199 919.345 306.453Z" fill="#3C3C3B"/>
<path d="M965.037 363.7C941.347 359.769 925.329 337.377 929.26 313.687C933.191 289.997 955.583 273.979 979.273 277.91C1002.96 281.842 1018.98 304.233 1015.05 327.923C1011.12 351.613 988.727 367.631 965.037 363.7Z" fill="#575756"/>
<path d="M944.799 325.314C942.307 310.175 952.56 295.883 967.698 293.392C982.836 290.9 997.128 301.152 999.62 316.291C1002.11 331.429 991.859 345.721 976.721 348.213C961.582 350.704 947.291 340.452 944.799 325.314Z" fill="#9D9D9C"/>
<path d="M960.602 305.564C960.093 307.789 959.839 310.077 960.03 312.493C960.792 323.49 969.565 332.39 980.563 333.28C982.788 333.471 985.013 333.344 987.047 332.899C988.827 332.517 990.098 334.679 988.827 336.013C984.695 340.527 978.719 343.388 972.108 343.324C959.712 343.26 949.541 333.026 949.668 320.63C949.731 313.891 952.783 307.789 957.55 303.72C958.949 302.512 961.047 303.784 960.602 305.564Z" fill="#DADADA"/>
<path d="M756.861 38.1255L767.223 177.407C767.731 184.463 767.986 191.583 767.986 198.639V286.81H726.729V188.023V38.1255H756.861Z" fill="#367AD1"/>
<path d="M762.01 38.1255L775.995 177.407C776.504 184.463 776.758 191.583 776.758 198.639V286.81H738.171V188.023L735.565 38.1255H762.01Z" fill="url(#paint4_linear_1494_605)"/>
<path d="M786.611 177.407V286.81H868.68V177.407L864.739 38.1255H797.355L786.611 177.407Z" fill="url(#paint5_linear_1494_605)"/>
<path d="M793.095 38.7612H1044.58V37.4263H793.223L793.095 38.7612Z" fill="#30358C"/>
<path d="M1030.72 293.676H1044.58V292.341H1031.86C1029.64 279.246 1022.45 267.04 1011.71 257.759C1000.52 248.16 986.474 242.884 972.171 242.884C963.272 242.884 953.291 245.744 944.01 250.894C935.301 255.725 928.245 262.082 924.558 268.375H874.338V269.71H925.32L925.511 269.392C929.007 263.163 936 256.869 944.646 252.101C953.736 247.079 963.526 244.282 972.171 244.282C1000.52 244.282 1026.21 265.769 1030.59 293.167L1030.72 293.676Z" fill="#30358C"/>
<path d="M898.43 38.1255L888.069 177.407C887.56 184.463 887.306 191.583 887.306 198.639V286.81H928.562V188.023V38.1255H898.43Z" fill="#367AD1"/>
<path d="M893.281 38.1255L879.296 177.407C878.788 184.463 878.533 191.583 878.533 198.639V286.81H917.184V188.023L919.79 38.1255H893.281Z" fill="url(#paint6_linear_1494_605)"/>
<path d="M693.927 189.676H868.68V230.552H693.927V189.676Z" fill="#F0C397"/>
<path d="M693.927 230.552H614.083V189.676H693.927V230.552Z" fill="url(#paint7_linear_1494_605)"/>
<path d="M605.946 145.304C610.205 153.568 617.897 170.923 621.139 179.886C623.682 186.879 623.046 193.299 621.902 200.419C620.631 208.238 618.278 221.27 616.689 228.708C616.054 231.568 615.863 234.111 612.303 233.984C609.506 233.92 608.362 230.233 608.298 227.818C608.171 222.669 608.362 205.568 607.98 201.754C607.662 198.893 605.628 190.82 603.53 187.451C599.017 180.14 595.902 175.118 590.626 166.473C583.442 154.713 580.709 146.131 583.569 137.04C584.459 134.116 587.701 131.7 590.244 130.62C592.787 129.603 595.139 129.793 595.965 130.111C599.462 131.764 602.767 139.138 605.946 145.304Z" fill="#7FD9EB"/>
<path d="M652.479 203.661C649.618 203.916 610.46 207.285 605.183 207.094C603.912 207.031 601.878 206.331 601.369 204.551C600.606 201.881 601.75 188.722 600.416 181.221C599.081 173.656 590.499 148.801 588.846 139.583C588.019 134.943 587.892 131.955 591.516 130.048C595.076 128.204 605.628 125.153 609.442 124.39C617.071 122.864 625.653 122.038 633.408 122.483C636.968 122.674 641.418 123.309 644.088 125.916C646.313 128.013 647.902 130.874 648.665 133.925C650.254 140.282 651.081 163.422 651.271 168.952C651.462 175.627 652.67 179.696 653.814 184.718C655.022 189.803 655.848 193.172 657.056 198.067C658.01 201.691 656.865 203.28 652.479 203.661Z" fill="#7FD9EB"/>
<path d="M630.039 97.4365C629.848 99.725 629.976 103.793 629.403 106.082C629.022 107.671 627.623 110.214 626.733 110.85C625.716 111.613 625.271 111.867 624.381 112.566C623.364 113.456 623.301 116.253 623.11 117.842C622.792 120.703 623.174 121.466 625.208 122.102C625.907 122.292 627.369 122.547 627.56 123.309C627.751 123.945 627.369 126.106 626.352 127.632C624.127 130.938 621.394 134.815 614.592 134.815C610.523 134.815 604.929 130.366 606.264 125.598C606.518 124.644 608.108 123.119 608.235 122.419C608.553 120.131 608.743 116.952 608.87 114.727C608.998 112.185 609.697 111.168 608.489 108.879C603.658 99.28 604.23 92.923 606.073 89.0453C608.044 85.0404 613.384 81.1626 618.978 81.5441C624.445 81.9255 630.039 85.3582 631.183 89.9988C632.01 92.9866 630.293 94.5123 630.039 97.4365Z" fill="#FEC1B5"/>
<path d="M627.496 110.087C627.305 110.405 627.051 110.659 626.733 110.913C625.716 111.676 625.335 111.93 624.381 112.63C623.809 113.075 623.555 114.282 623.364 115.617C622.983 115.681 622.411 115.681 621.457 115.554C618.406 115.109 615.418 111.803 614.528 110.277C613.511 108.688 612.366 104.747 612.811 104.111C613.066 103.73 615.036 106.718 615.418 107.099C618.469 110.85 623.873 111.295 627.496 110.087Z" fill="#E8988C"/>
<path d="M565.579 356.038C565.897 359.47 565.516 360.551 561.193 361.06C558.841 361.314 555.98 360.996 554.073 361.187C550.45 361.568 543.203 364.302 537.545 364.302C533.159 364.302 526.42 364.302 527.31 361.06C528.073 358.199 534.43 357.5 537.037 356.546C540.596 355.211 544.156 353.749 547.144 351.397C550.45 348.727 551.912 346.693 553.374 343.324C555.472 338.365 555.79 334.36 559.667 333.915C563.863 333.407 565.262 336.395 564.499 347.011C564.181 349.998 565.325 353.813 565.579 356.038Z" fill="#1E2859"/>
<path d="M731.878 353.749C730.225 355.338 725.076 358.072 722.469 356.8C719.863 355.593 723.995 347.774 723.868 344.595C723.677 340.59 720.817 330.673 718.464 328.258C716.367 326.096 714.142 324.698 711.98 322.727C710.137 321.074 709.501 318.277 710.709 316.815C712.553 314.59 715.095 313.51 718.592 315.734C719.736 316.497 723.359 318.532 725.711 319.866C727.809 321.074 730.034 321.074 733.022 322.346C736.073 323.681 735.628 327.177 735.438 328.258C734.993 330.991 734.675 334.932 734.611 337.285C734.548 341.035 735.438 343.197 735.183 346.947C734.929 349.236 733.785 351.906 731.878 353.749Z" fill="#1E2859"/>
<path d="M613.066 92.4144C614.846 87.5196 621.902 84.0868 627.051 84.4047C629.086 85.8668 630.675 87.8374 631.183 90.0624C631.501 91.4609 631.31 92.5416 630.993 93.5587C630.802 93.2408 630.548 92.9866 630.293 92.7323C629.276 91.9695 628.068 91.9059 626.861 91.9694C623.936 92.1602 620.249 93.6223 617.452 94.3851C615.227 95.0844 611.922 95.5294 613.066 92.4144Z" fill="#E8988C"/>
<path d="M623.237 78.5563C619.041 77.5392 615.291 77.6028 611.222 78.8742C608.997 79.5734 607.09 80.5905 605.755 82.0526C605.056 82.8155 604.23 84.5319 604.166 85.8033C604.039 87.2654 603.785 87.2654 602.831 88.2189C601.75 89.236 601.877 91.5245 601.941 93.6223C602.005 96.1016 603.085 98.4536 604.039 100.806C605.31 103.984 608.298 110.85 609.442 110.405C610.142 110.15 611.159 107.926 611.095 106.908C610.968 104.811 610.841 102.649 610.523 100.615C610.269 99.0893 610.269 99.0893 610.968 97.8815C611.222 98.4536 611.794 100.043 611.794 100.043L613.892 99.0893C613.701 96.8644 613.829 93.3045 614.274 91.7788C614.909 89.9353 616.054 88.2825 617.643 87.3925C620.885 85.549 626.415 86.0575 629.785 88.0282C631.12 88.791 631.31 91.2703 631.12 92.2874C630.992 92.9231 630.611 94.703 631.12 94.3852C631.628 94.0038 632.327 91.7153 632.391 90.2531C632.518 88.4096 632.264 86.5025 631.437 84.9133C629.785 81.5441 626.67 79.3827 623.237 78.5563Z" fill="#1E2859"/>
<path d="M611.604 98.9623C612.176 101.124 611.54 103.094 610.142 103.476C608.807 103.857 607.218 102.395 606.645 100.234C606.073 98.0723 606.709 96.1016 608.108 95.7202C609.506 95.4024 611.095 96.8009 611.604 98.9623Z" fill="#FEC1B5"/>
<path d="M610.142 77.2848C614.274 75.8862 621.521 74.9327 624.954 76.9034C629.594 79.5733 631.501 82.1796 632.582 85.676C632.836 86.5659 632.328 87.1381 631.819 86.9474C628.45 85.5488 624.572 85.4217 620.567 86.3117C617.643 86.9474 615.291 88.2823 612.748 89.9351C608.807 92.4779 606.518 94.5757 603.785 97.8814C602.831 99.0256 602.005 97.4364 601.814 96.61C599.78 89.1087 599.526 80.7811 610.142 77.2848Z" fill="#3448AD"/>
<path d="M613.511 88.8544C613.765 87.3923 615.736 83.8324 621.521 81.7982C623.746 81.0353 627.369 78.9376 629.721 78.1111C630.866 77.7297 631.12 77.9204 630.929 77.984C630.548 78.0476 629.785 78.1111 628.386 78.874C626.161 80.1454 625.081 82.0525 623.746 83.1331C622.22 84.341 620.885 85.2945 619.232 86.1845C617.643 87.0109 614.846 88.3459 614.02 88.7908C613.638 88.9816 613.447 89.1087 613.511 88.8544Z" fill="#7AC9EB"/>
<path d="M613.702 88.8543C616.944 86.8836 622.029 85.2944 625.653 81.0352C629.086 76.9032 634.235 76.9032 637.477 79.3824C638.939 80.5266 641.1 83.133 640.274 85.6758C639.511 87.9643 635.697 89.3628 633.599 89.6807C632.582 89.8714 632.328 89.6807 631.883 89.2357C631.183 88.5364 630.039 87.3286 628.005 86.6293C625.081 85.6122 620.631 86.3115 617.961 87.3286C617.134 87.6465 615.1 88.6636 614.21 89.1721C613.575 89.4264 613.193 89.1721 613.702 88.8543Z" fill="#1F367A"/>
<path d="M652.797 200.991C653.242 202.009 653.687 202.835 654.132 203.407C657.12 202.771 657.882 201.119 657.056 197.94C655.785 193.045 654.958 189.676 653.814 184.59C652.67 179.568 651.462 175.5 651.271 168.825C651.144 165.011 650.699 152.551 649.936 143.27C648.665 140.028 646.503 139.392 642.689 144.097C637.922 149.945 647.139 191.583 652.797 200.991Z" fill="#37C0DB"/>
<path d="M709.374 225.91C706.831 225.974 704.797 225.529 703.399 221.079C702.572 218.409 694.117 192.473 691.447 184.082C689.604 178.297 684.709 172.258 680.386 169.461C674.156 165.392 655.022 154.712 645.868 148.101C638.939 143.143 632.01 139.392 633.472 129.475C634.044 125.47 638.367 123.182 642.562 123.436C646.313 123.69 650.89 124.39 654.005 126.424C662.078 131.764 684.391 152.297 691.892 158.908C698.377 164.566 702 173.211 703.844 181.666C706.196 192.346 710.518 209.891 712.743 220.825C713.57 224.003 711.599 225.847 709.374 225.91Z" fill="#7FD9EB"/>
<path d="M718.782 235.764C717.447 236.018 715.795 235.891 714.968 235.7C712.553 235.128 707.34 233.857 706.45 232.077C705.433 230.043 704.797 226.292 704.161 223.749C703.653 221.588 705.178 219.808 707.531 219.744C710.137 219.681 712.362 222.351 713.697 224.194C716.24 227.69 727.682 230.424 728.445 232.331C729.017 233.793 722.342 235.065 718.782 235.764Z" fill="#E8988C"/>
<path d="M721.134 314.145C716.939 310.903 677.081 279.246 674.411 276.385C671.169 272.952 667.418 266.532 667.037 261.7C666.21 251.656 665.956 232.713 665.002 217.646C664.685 212.942 662.905 208.238 661.442 204.933C660.425 202.644 659.218 201.118 657.438 200.038C653.878 197.94 648.792 197.622 645.486 195.079C642.372 192.664 640.019 189.612 639.13 185.925C637.222 178.36 635.125 164.312 634.171 157.51C633.345 151.343 633.09 141.299 636.142 133.29C637.667 129.348 641.164 125.47 642.435 124.326C643.262 123.563 643.389 123.182 642.689 123.055C641.672 122.801 639.829 122.546 638.812 122.419C637.731 122.292 636.968 122.673 636.205 123.436C634.044 125.47 630.929 130.238 629.658 134.879C628.005 140.918 627.496 147.847 628.068 155.793C622.538 156.175 612.621 156.937 607.281 157.382C604.039 145.431 602.323 134.688 603.467 127.187C603.658 126.043 603.785 125.47 603.085 125.725C602.196 126.043 600.288 126.615 599.144 126.996C598.127 127.314 597.873 128.84 597.746 129.285C596.156 135.006 599.78 152.805 601.941 159.862C602.068 161.705 604.293 177.534 604.611 182.365C604.865 186.752 605.438 191.138 604.103 195.461C603.53 197.368 601.751 200.356 600.479 201.691C598.254 203.979 598.381 204.551 598.127 207.221C597.936 209.192 597.619 217.392 597.619 221.206C594.122 233.158 584.269 254.898 581.027 262.209C575.751 274.16 572.191 285.539 570.284 291.26C566.469 302.639 561.702 316.37 556.298 333.661C555.663 335.823 554.645 338.238 555.726 340.527C556.743 342.815 559.032 344.277 561.066 345.231C564.626 346.884 569.266 347.71 571.364 344.15C572.318 342.561 574.924 336.204 575.751 333.979C580.518 321.71 583.951 313.764 588.846 301.241C591.706 294.057 597.682 284.713 602.895 276.448C607.726 268.884 620.376 250.448 622.919 246.698C625.907 242.312 630.865 241.93 633.535 247.969C636.078 253.691 643.897 275.241 646.631 280.835C649.237 286.302 653.306 291.642 658.963 295.774C666.147 301.05 704.225 326.796 710.328 329.466C713.57 330.928 714.968 330.292 716.303 329.402C717.892 328.385 719.418 326.351 720.817 323.808C721.579 322.473 722.787 319.93 722.978 318.023C723.041 315.925 721.897 314.781 721.134 314.145Z" fill="#3448AD"/>
<path d="M632.772 247.08C629.975 242.185 625.462 242.82 622.728 246.889C620.186 250.639 607.535 269.075 602.704 276.639C597.491 284.904 591.516 294.185 588.655 301.432C585.731 308.933 583.315 314.781 580.836 320.884C580.582 320.503 580.391 319.93 580.391 319.168C580.391 316.307 583.125 311.349 584.332 306.199C585.349 302.004 585.985 294.693 588.337 289.481C589.481 286.874 594.631 282.424 596.538 277.847C598.763 272.698 598.826 266.85 601.814 262.018C603.594 259.158 607.98 257.251 609.824 253.691C612.684 248.16 612.239 237.798 615.99 234.111C617.834 234.429 624.953 235.828 626.288 236.146C627.56 236.4 628.45 237.417 628.831 238.243C630.357 241.358 630.993 243.329 632.582 246.19C632.645 246.38 632.709 246.762 632.772 247.08Z" fill="#1F367A"/>
<path d="M556.107 333.788C561.066 317.769 565.516 304.801 569.203 293.994C572.318 297.172 584.332 306.453 585.985 297.617C586.366 295.583 587.638 293.04 588.782 293.231C590.053 293.485 590.88 294.312 591.388 295.583C590.308 297.617 589.418 299.588 588.719 301.431C583.824 313.891 580.391 321.901 575.623 334.17C574.797 336.331 572.19 342.688 571.237 344.341C569.139 347.901 564.498 347.074 560.939 345.422C558.904 344.468 556.616 343.006 555.599 340.717C554.454 338.365 555.408 335.886 556.107 333.788Z" fill="#1F367A"/>
<path d="M594.758 357.563C592.914 359.089 587.511 361.695 584.968 360.488C582.425 359.28 587.384 351.906 587.511 348.854C587.702 345.04 585.731 335.568 583.57 333.216C581.662 331.118 579.501 329.783 577.53 327.94C575.814 326.351 575.433 323.681 576.768 322.282C578.865 320.121 581.535 319.104 584.841 321.265C585.922 321.964 589.354 323.935 591.643 325.206C593.677 326.351 595.966 326.351 598.826 327.622C601.751 328.893 600.988 332.199 600.67 333.28C599.971 335.886 599.208 339.7 598.953 341.925C598.508 345.549 599.271 347.583 598.572 351.143C598.318 353.304 596.856 355.911 594.758 357.563Z" fill="#1E2859"/>
<path d="M475.374 356.038C475.565 359.471 475.12 360.551 470.797 361.06C468.445 361.314 465.584 360.996 463.614 361.187C459.927 361.568 452.68 364.302 446.958 364.302C442.509 364.302 435.834 364.302 436.851 361.06C437.741 358.199 444.098 357.5 446.768 356.546C450.391 355.211 454.015 353.749 457.066 351.397C460.499 348.727 461.961 346.629 463.55 343.324C464.249 341.925 466.029 339.382 468.636 338.683C473.912 337.285 475.31 339.51 474.484 347.011C474.23 349.935 475.247 353.749 475.374 356.038Z" fill="#1E2859"/>
<path d="M543.267 192.663C542.885 199.783 540.915 204.424 532.651 204.932C524.831 205.377 504.298 205.632 499.086 205.377C491.648 204.996 487.007 202.262 485.355 195.27C483.32 186.561 481.223 132.908 481.922 127.695C482.367 124.389 483.893 120.893 490.059 118.732C493.937 117.397 506.587 115.808 515.741 115.426C523.433 115.108 532.269 116.316 537.99 117.46C544.856 118.859 546.382 120.512 546.509 127.822C546.699 132.399 543.839 181.284 543.267 192.663Z" fill="#7FD9EB"/>
<path d="M498.45 81.4162C499.658 76.1399 505.061 73.6607 509.638 72.9614C514.724 72.1986 521.271 74.9957 524.069 79.1277C526.484 82.6876 527.692 87.9003 522.734 97.8807C521.526 100.296 521.716 103.602 522.034 106.145C522.352 108.688 522.606 110.595 522.988 112.82C523.433 115.553 525.213 115.235 525.531 116.252C526.993 121.274 516.949 129.221 508.43 128.903C500.484 128.585 501.438 119.749 502.073 117.778C502.582 116.189 504.108 116.062 504.934 115.617C507.032 114.536 506.968 113.328 506.841 109.514C506.778 106.908 506.841 104.238 505.951 103.856C504.807 103.348 504.425 103.221 503.345 102.458C502.391 101.822 501.628 100.614 501.183 99.5971C500.23 97.3722 500.039 92.5409 499.848 90.1888C499.658 87.2646 497.751 84.404 498.45 81.4162Z" fill="#FEC1B5"/>
<path d="M428.587 222.732C427.506 220.189 428.142 218.219 431.257 215.485C433.291 213.705 453.951 196.923 460.499 191.265C464.249 188.023 468.191 181.475 469.335 176.581C470.924 169.461 474.738 148.101 477.027 137.676C478.934 129.221 480.333 121.275 489.868 118.923C493.682 117.969 498.005 121.466 499.213 125.28C500.293 128.776 500.357 133.48 499.531 136.977C497.433 146.194 486.245 173.911 482.812 183.128C479.824 191.075 473.848 197.431 466.729 202.136C457.193 208.429 443.78 217.901 434.308 223.431C431.638 225.021 429.286 224.321 428.587 222.732Z" fill="#7FD9EB"/>
<path d="M546.127 140.536C545.301 157.065 543.712 184.527 543.267 192.664C543.267 192.854 543.267 193.045 543.203 193.236C542.44 193.681 541.296 193.871 539.579 193.681C533.159 192.981 528.582 187.832 526.675 184.972C522.416 178.615 522.416 166.155 522.606 160.179C522.67 158.145 522.988 152.043 523.56 150.962C525.213 147.847 526.484 157.319 526.357 162.404C526.293 165.519 526.611 172.957 527.628 175.69C528.455 177.915 530.108 177.915 531.125 175.754C533.35 170.986 532.269 147.084 535.193 143.842C537.482 141.426 542.313 139.583 546.127 140.536Z" fill="#37C0DB"/>
<path d="M587.257 318.659C581.917 312.747 557.697 284.522 554.773 281.025C549.751 275.113 546.826 267.231 546.826 258.649C546.763 245.045 546.826 202.707 547.081 197.813C547.144 196.35 547.017 192.918 546.572 192.155C545.428 190.184 544.411 192.218 541.614 192.473C536.592 192.854 533.795 190.184 531.379 188.277C524.323 182.683 524.513 173.847 524.259 165.583C524.132 161.006 524.068 153.695 524.259 149.69C524.895 137.358 525.975 130.302 529.599 125.216C532.332 121.402 535.511 118.795 539.071 118.223C540.151 118.033 540.279 117.778 539.643 117.588C539.071 117.397 535.956 116.761 534.812 116.761C531.379 116.761 527.247 119.813 524.132 124.453C520.953 129.221 519.301 137.485 518.474 147.465C512.372 147.465 503.281 147.465 497.433 147.465C496.924 136.659 498.195 124.39 499.785 119.304C500.42 117.27 500.929 116.316 500.039 116.443C499.213 116.57 496.924 116.888 496.288 116.952C495.271 117.079 495.144 117.27 494.572 118.795C492.283 125.152 491.457 141.617 491.203 150.453C491.076 155.284 490.122 172.258 489.868 177.725C489.677 181.666 489.677 185.289 487.961 188.976C486.88 191.265 484.592 192.536 483.066 193.49C481.54 194.38 481.159 195.588 481.032 197.304C480.396 203.915 480.015 212.879 478.87 216.629C477.408 221.397 476.2 225.02 473.785 230.742C469.208 241.421 464.186 250.321 459.927 260.492C456.176 269.519 456.367 277.593 457.257 287.001C458.274 298.126 461.452 332.707 462.088 341.353C462.342 345.294 467.936 345.421 471.687 345.803C480.332 346.629 479.125 341.162 479.379 336.204C479.633 330.927 479.887 309.505 479.951 303.656C480.205 291.832 482.049 287.064 484.846 280.008C488.787 269.837 501.056 247.842 503.154 243.773C503.917 242.248 505.76 238.243 508.494 238.497C511.672 238.751 511.736 240.913 512.88 244.6C514.342 249.177 519.173 267.993 520.953 274.033C523.56 282.805 528.073 287.827 530.68 290.434C538.054 297.935 564.562 323.553 574.797 332.898C577.403 335.314 579.12 334.742 582.235 333.025C583.887 332.072 588.274 328.194 589.672 325.842C591.452 322.981 590.181 321.964 587.257 318.659Z" fill="#3448AD"/>
<path d="M511.863 241.612C511.291 239.832 510.528 238.815 508.43 238.625C505.697 238.37 503.853 242.375 503.09 243.901C500.993 247.969 488.724 269.964 484.782 280.136C482.049 287.192 480.142 291.959 479.951 303.783C479.887 308.678 479.633 324.761 479.442 332.835C477.917 331.563 476.9 327.114 476.963 324.698C477.027 321.837 477.853 315.925 477.726 309.695C477.599 302.639 474.675 297.172 475.883 291.26C476.836 286.493 480.523 282.678 481.413 277.656C482.43 272.062 482.049 267.549 484.401 262.272C485.736 259.158 489.804 256.488 491.139 252.61C493.174 246.698 490.567 238.434 494.572 231.632C496.416 231.632 504.997 232.204 506.523 232.395C507.795 232.585 508.875 233.475 509.193 234.302C510.147 236.717 510.655 237.925 511.609 240.404C511.609 240.595 511.736 241.104 511.863 241.612Z" fill="#1F367A"/>
<path d="M455.667 219.871C454.523 219.045 450.773 220.253 449.183 220.888C447.213 221.715 437.105 224.13 434.244 223.686C431.257 223.241 429.477 222.668 428.396 223.113C427.252 223.558 424.01 224.385 426.107 225.783C428.332 227.309 433.927 230.869 435.961 232.077C436.914 232.649 438.567 233.412 439.775 233.285C442.381 233.03 444.861 232.649 446.513 232.395C448.293 232.077 450.455 229.534 452.171 227.945C455.922 224.258 458.019 221.651 455.667 219.871Z" fill="#E8988C"/>
<path d="M565.77 175.817C563.037 164.693 556.552 140.6 553.501 131.763C552.039 127.504 550.768 121.402 546.699 120.067C543.203 118.859 541.105 117.905 538.944 119.622C531.887 125.406 534.43 132.844 536.337 140.155C538.753 149.754 544.22 166.409 546 172.829C547.971 179.886 544.411 186.243 541.296 189.485C535.956 195.015 511.354 218.536 509.511 220.252C506.396 223.05 505.951 224.829 506.905 227.309C507.35 228.58 510.019 229.661 512.372 228.135C521.017 222.605 548.416 204.233 556.87 198.003C565.134 191.837 569.012 189.167 565.77 175.817Z" fill="#7FD9EB"/>
<path d="M513.134 221.969C512.244 220.825 510.019 219.998 508.621 220.888C502.391 224.829 491.393 222.032 487.834 223.113C486.626 223.494 483.447 224.384 485.545 225.783C487.77 227.309 493.364 230.869 495.398 232.076C496.352 232.648 498.005 233.411 499.213 233.284C501.819 233.03 504.298 232.648 505.951 232.394C507.731 232.076 509.829 229.851 511.672 228.453C513.579 227.054 514.914 224.321 513.134 221.969Z" fill="#E8988C"/>
<path d="M498.45 81.4167C499.022 78.7468 500.738 76.8397 502.773 75.4412C507.35 75.314 512.626 77.0304 514.978 80.4632C516.822 83.2602 513.452 83.5781 511.1 83.5145C508.176 83.3874 504.171 82.8788 501.247 83.3874C500.23 83.5781 499.276 83.8324 498.514 84.4681C498.259 83.4509 498.196 82.4338 498.45 81.4167Z" fill="#E8988C"/>
<path d="M527.12 80.2085C526.611 78.8735 525.721 78.0471 525.34 76.585C524.132 72.0716 517.139 69.1474 511.799 69.6559C508.939 69.9102 500.039 71.8173 497.56 78.8735C496.797 81.0349 497.496 84.5948 497.814 85.1669C498.386 86.1205 498.704 85.2305 498.64 84.7855C498.64 84.0227 498.45 82.2427 498.958 80.9713C499.276 80.1449 500.103 78.81 501.565 78.3014C503.917 77.5386 507.222 77.6657 509.574 78.1743C510.782 78.4285 511.799 79.6364 511.927 80.8442C512.181 82.8784 512.689 85.5483 513.961 87.519C515.359 89.6168 518.665 90.7611 518.665 90.7611C518.792 89.9347 519.11 89.2354 519.491 88.854C520.826 90.2525 520.063 95.9102 520 98.1351C519.936 99.1523 519.936 101.695 520.763 101.886C521.653 102.14 522.225 100.805 522.67 99.9151C526.166 93.5581 529.281 85.6119 527.12 80.2085Z" fill="#1E2859"/>
<path d="M528.2 87.9641C528.01 88.8541 527.247 90.4433 526.23 89.2991C523.433 86.057 521.081 84.0864 517.076 81.6707C514.469 80.145 512.054 78.8736 509.13 78.3015C505.125 77.5387 501.247 77.7929 497.941 79.3186C497.369 79.5729 496.861 78.9372 497.115 78.1108C498.068 74.6145 499.848 71.881 504.425 69.0839C507.795 67.0497 515.042 67.7489 519.237 69.0203C529.917 72.1352 529.98 80.4629 528.2 87.9641Z" fill="#3448AD"/>
<path d="M515.677 80.5262C514.851 80.0177 511.99 78.8734 510.337 78.047C508.621 77.2206 507.286 76.3306 505.697 75.1864C504.362 74.1693 503.217 72.3258 500.929 71.1179C499.594 70.4187 498.831 70.3551 498.386 70.2915C498.195 70.2915 498.45 70.0373 499.594 70.4187C502.01 71.1815 505.697 73.1522 507.922 73.8514C513.77 75.6949 515.868 79.1277 516.186 80.6534C516.313 80.8441 516.122 80.717 515.677 80.5262Z" fill="#7AC9EB"/>
<path d="M516.059 80.6538C512.753 78.8103 507.604 77.4117 503.917 73.2161C500.357 69.2112 495.208 69.3384 492.029 71.9447C490.631 73.089 488.469 75.7589 489.423 78.3017C490.249 80.5267 494.127 81.798 496.225 82.1159C497.242 82.243 497.496 82.1159 497.941 81.6073C498.577 80.8445 499.721 79.6367 501.755 78.8738C504.616 77.7932 509.066 78.3653 511.863 79.2553C512.753 79.5095 514.787 80.5267 515.677 80.9716C516.186 81.2259 516.567 80.9081 516.059 80.6538Z" fill="#1F367A"/>
<path d="M519.173 89.8076C518.411 91.7782 518.792 94.0032 520.127 94.1939C521.271 94.321 522.797 93.0496 523.623 91.2697C524.513 89.299 524.768 87.3919 522.86 86.947C521.017 86.5655 519.873 87.8369 519.173 89.8076Z" fill="#FEC1B5"/>
<path d="M515.677 102.076C516.058 101.632 518.347 98.5166 518.665 98.898C519.173 99.5973 518.029 104.047 516.885 105.764C515.804 107.353 513.261 110.658 509.257 110.913C508.303 110.976 507.604 110.913 506.968 110.849C506.968 110.468 506.968 110.023 506.904 109.514C506.841 108.243 506.841 106.908 506.777 105.827C510.019 105.827 513.452 104.683 515.677 102.076Z" fill="#E8988C"/>
<path d="M512.117 106.654C508.812 108.434 503.663 108.625 501.819 107.035C499.403 104.937 498.704 97.6905 499.403 95.9106C500.166 94.0035 502.137 93.8764 504.425 94.5756C506.714 95.2113 508.303 97.2456 511.227 95.6563C512.753 94.8299 514.533 90.6343 515.55 88.2187C515.931 87.2651 518.538 87.7737 518.538 88.7908C518.729 93.6221 520.254 102.331 512.117 106.654Z" fill="#1E2859"/>
<path d="M501.31 98.8343C501.374 99.1521 502.582 99.7242 504.044 99.5335C505.506 99.3428 506.46 98.1986 506.332 97.8807C506.205 97.5629 505.315 98.3257 503.79 98.5164C502.391 98.7071 501.31 98.5164 501.31 98.8343Z" fill="white"/>
<path d="M443.335 156.492H510.782V223.94H443.335V156.492Z" fill="#F0C397"/>
<path d="M443.389 223.928H428.005V156.481H443.389V223.928Z" fill="#CC9068"/>
<path d="M478.235 202.516H499.403V203.597H478.235V202.516Z" fill="white"/>
<path d="M478.235 205.885H499.403V206.966H478.235V205.885Z" fill="white"/>
<path d="M478.235 209.254H499.403V210.335H478.235V209.254Z" fill="white"/>
<path d="M478.234 212.624H491.838V213.704H478.234V212.624Z" fill="white"/>
<defs>
<linearGradient id="paint0_linear_1494_605" x1="218.635" y1="183.571" x2="99.4866" y2="256.222" gradientUnits="userSpaceOnUse">
<stop stop-color="#F0C397"/>
<stop offset="1" stop-color="#CC9068"/>
</linearGradient>
<linearGradient id="paint1_linear_1494_605" x1="250.493" y1="231.724" x2="80.2425" y2="368.985" gradientUnits="userSpaceOnUse">
<stop stop-color="#F0C397"/>
<stop offset="1" stop-color="#CC9068"/>
</linearGradient>
<linearGradient id="paint2_linear_1494_605" x1="912.743" y1="448.282" x2="912.743" y2="43.8492" gradientUnits="userSpaceOnUse">
<stop stop-color="#30358C"/>
<stop offset="0.236" stop-color="#303990"/>
<stop offset="0.4805" stop-color="#31469D"/>
<stop offset="0.7289" stop-color="#335AB1"/>
<stop offset="0.9785" stop-color="#3677CE"/>
<stop offset="1" stop-color="#367AD1"/>
</linearGradient>
<linearGradient id="paint3_linear_1494_605" x1="1050.37" y1="4.17398" x2="876.515" y2="305.307" gradientUnits="userSpaceOnUse">
<stop stop-color="#7AC9EB"/>
<stop offset="0.2201" stop-color="#76C5EA"/>
<stop offset="0.4481" stop-color="#6CB8E6"/>
<stop offset="0.6798" stop-color="#5AA4DF"/>
<stop offset="0.9126" stop-color="#4187D5"/>
<stop offset="1" stop-color="#367AD1"/>
</linearGradient>
<linearGradient id="paint4_linear_1494_605" x1="756.158" y1="38.1153" x2="756.158" y2="286.824" gradientUnits="userSpaceOnUse">
<stop stop-color="#C8E9F7"/>
<stop offset="0.2215" stop-color="#C4E7F6"/>
<stop offset="0.451" stop-color="#B7E2F4"/>
<stop offset="0.6843" stop-color="#A3DAF1"/>
<stop offset="0.9186" stop-color="#86CEED"/>
<stop offset="1" stop-color="#7AC9EB"/>
</linearGradient>
<linearGradient id="paint5_linear_1494_605" x1="890.262" y1="274.355" x2="701.542" y2="-52.5185" gradientUnits="userSpaceOnUse">
<stop stop-color="#1E2859"/>
<stop offset="0.1478" stop-color="#202E62"/>
<stop offset="0.3887" stop-color="#253F7A"/>
<stop offset="0.6929" stop-color="#2D5AA2"/>
<stop offset="1" stop-color="#367AD1"/>
</linearGradient>
<linearGradient id="paint6_linear_1494_605" x1="899.123" y1="38.1153" x2="899.123" y2="365.523" gradientUnits="userSpaceOnUse">
<stop stop-color="#C8E9F7"/>
<stop offset="0.2215" stop-color="#C4E7F6"/>
<stop offset="0.451" stop-color="#B7E2F4"/>
<stop offset="0.6843" stop-color="#A3DAF1"/>
<stop offset="0.9186" stop-color="#86CEED"/>
<stop offset="1" stop-color="#7AC9EB"/>
</linearGradient>
<linearGradient id="paint7_linear_1494_605" x1="693.911" y1="210.132" x2="614.081" y2="210.132" gradientUnits="userSpaceOnUse">
<stop stop-color="#CC9068"/>
<stop offset="0.3978" stop-color="#C88C65"/>
<stop offset="0.8093" stop-color="#BB815B"/>
<stop offset="1" stop-color="#B37A54"/>
</linearGradient>
</defs>
</svg>
