<svg width="945" height="535" viewBox="0 0 945 535" fill="none" xmlns="http://www.w3.org/2000/svg">
<path d="M785.514 152.047C713.146 165.353 681.889 138.929 619.5 145.958C558.053 152.863 531.879 171.441 474.7 175.333C414.32 179.412 377.853 154.808 296.196 150.666C227.279 147.151 177.632 160.018 106.205 142.883C31.263 124.869 -22.3386 70.3261 -122.575 66.9995V448.676H944.938V119.471C863.029 103.278 838.739 142.255 785.514 152.047Z" fill="url(#paint0_linear_1494_750)"/>
<path d="M266.632 197.551V244.249H278.809V224.729H330.465V339.589H214.035V196.987L230.166 192.781L266.632 197.551Z" fill="#BCE5F7"/>
<path d="M-51.902 172.257H7.28564V323.271H-51.902V172.257Z" fill="#BCE5F7"/>
<path d="M301.153 289.126H340.821L352.872 270.799H313.204L301.153 289.126Z" fill="#77C4E6"/>
<path d="M301.153 289.126H340.821V339.59H301.153V289.126Z" fill="#F2FBFC"/>
<path d="M352.872 270.799L364.923 289.126V339.59H352.872H340.821V289.126L352.872 270.799Z" fill="#BCE5F7"/>
<path d="M214.035 339.589H230.166V192.781L214.035 196.987V339.589Z" fill="#8ACDE6"/>
<path d="M278.808 227.616H290.232V244.249H278.808V227.616Z" fill="#8ACDE6"/>
<path d="M192.444 270.799H230.166L241.589 253.413H203.867L192.444 270.799Z" fill="#367AD1"/>
<path d="M192.444 270.799H230.166V314.17H192.444V270.799Z" fill="#F2FBFC"/>
<path d="M98.4906 323.266H88.6365L88.6365 208.782H98.4906L98.4906 323.266Z" fill="#BCE5F7"/>
<path d="M98.5465 194.853H172.547V323.208H98.5465V194.853Z" fill="#BCE5F7"/>
<path d="M88.6295 117.777L45.3214 112.128L29.4418 117.275V323.208H88.6295V117.777Z" fill="#BCE5F7"/>
<path d="M29.4419 323.208H45.3215V112.128L29.4419 117.275V323.208Z" fill="#8ACDE6"/>
<path d="M88.6295 239.479H57.9373L44.6938 221.905H75.386L88.6295 239.479Z" fill="#367AD1"/>
<path d="M-122.576 448.676V300.424C-96.3398 298.855 -63.7019 314.421 -25.9799 314.421C17.8931 314.421 38.7939 297.349 82.6669 285.36C120.138 275.067 158.801 276.385 198.343 286.867C234.371 296.407 274.603 313.73 310.756 324.965C348.29 336.64 387.644 336.64 426.056 331.305C464.531 325.97 492.274 317.622 532.255 317.622C561.19 317.622 583.848 321.388 602.552 326.723C621.068 331.995 638.893 339.841 657.535 344.611C695.571 354.339 730.029 351.076 768.378 345.678C807.607 340.154 843.132 328.229 890.52 328.668C914.308 328.857 936.778 333.313 944.812 335.635V448.676H-122.576Z" fill="url(#paint1_linear_1494_750)"/>
<path d="M944.937 493.051V534.288C916.316 535.669 869.744 525.375 846.458 521.044C823.047 516.651 799.071 514.768 775.157 515.646C750.867 516.525 726.765 519.349 702.537 520.542C678.185 521.735 653.643 520.73 629.541 517.467C605.879 514.265 582.342 509.935 558.303 509.621C534.013 509.307 509.911 512.696 485.746 514.391C461.456 516.086 436.977 515.207 412.938 511.316C401.138 509.433 389.401 506.922 377.413 506.106C365.299 505.29 353.311 506.734 341.26 507.738C329.649 508.742 317.911 508.805 306.363 506.985C290.295 504.474 273.16 493.616 272.155 492.988H944.937V493.051Z" fill="#367AD1"/>
<path d="M19.1484 208.724H57.9374V344.736H19.1484V208.724Z" fill="#F2FBFC"/>
<path d="M-4.57702 208.724H19.1483V344.736H-4.57702V208.724Z" fill="#BCE5F7"/>
<path d="M-122.576 341.912H57.9374V344.799H-122.576V341.912Z" fill="white"/>
<path d="M-122.576 325.028C-109.897 327.099 -103.307 352.205 -101.487 359.549C-99.2271 368.524 -94.708 398.652 -84.4772 399.593C-77.8869 400.221 -74.121 392.313 -65.5221 393.944C-52.5925 396.392 -51.9648 416.477 -43.9936 434.365C-40.4787 442.274 -32.5075 453.132 -25.8544 451.814C-18.6364 450.37 -16.1886 443.09 -8.40566 442.085C0.820843 440.956 14.1899 454.89 24.0441 467.819H-122.388C-122.45 467.694 -122.576 467.568 -122.639 467.505V325.028H-122.576Z" fill="#1E2859"/>
<path d="M38.731 344.799C36.9736 342.853 35.53 339.213 37.664 336.64C39.4842 334.443 45.3214 334.882 47.3927 332.748C49.1501 330.865 46.8278 325.718 48.8991 322.58C50.7193 319.818 55.6149 320.697 63.084 324.4C67.0382 326.346 69.7999 328.48 73.3148 327.664C75.6999 327.162 75.6371 324.4 78.0222 323.271C82.353 321.137 88.6923 326.848 92.2699 324.275C95.8475 321.764 92.9603 314.986 96.789 312.161C101.308 308.897 108.84 314.17 112.041 317.559C116.184 321.89 117.815 326.911 121.895 330.802C126.979 335.635 130.117 329.547 135.39 331.116C138.277 331.995 140.034 337.016 143.235 336.326C145.558 335.824 145.872 331.744 147.378 330.3C149.512 328.355 150.893 328.606 153.592 329.798C156.855 331.242 166.898 339.276 167.086 344.736H38.731V344.799Z" fill="#367AD1"/>
<path d="M-23.4066 344.799C-24.4736 341.222 -24.9129 332.999 -21.0843 330.677C-16.5024 327.978 -8.53121 336.577 -2.44297 337.142C3.01761 337.707 6.09316 333.69 11.491 335.259C14.5037 336.138 21.2823 338.774 26.8057 344.736H-23.4066V344.799Z" fill="#367AD1"/>
<path d="M19.0953 211.64H-4.63V208.752H19.0953V211.64Z" fill="#F2FBFC"/>
<path d="M226.274 448.676C227.592 440.767 232.174 428.779 248.242 427.963C262.113 427.273 286.403 437.127 295.63 433.863C305.107 430.537 302.722 419.49 311.823 413.025C319.669 407.502 341.888 415.598 344.524 411.205C346.783 407.376 338.749 399.405 339.565 393.756C341.511 379.446 361.91 387.354 371.325 392.564C377.476 395.953 384.317 400.66 391.535 401.288C399.13 401.916 405.846 397.334 409.863 395.702C425.742 389.174 440.994 398.401 452.92 405.556C468.548 414.971 485.683 421.687 504.638 419.929C514.492 418.988 534.012 415.975 545.938 417.544C568.973 420.494 589.56 438.947 596.213 448.676H226.274Z" fill="white"/>
<path d="M49.9661 386.915C62.4564 384.279 105.953 376.119 131.31 371.474C156.981 366.83 194.452 359.298 205.059 356.474C227.655 350.385 242.53 346.557 242.53 341.096C242.53 335.761 228.91 331.556 225.081 330.112C216.483 326.786 207.695 324.149 198.846 321.576C183.029 316.994 156.542 310.09 140.725 305.508C134.009 303.562 121.77 299.545 114.238 295.779C107.585 292.453 105.262 289.503 105.262 287.118C105.262 283.101 110.911 281.281 114.866 280.339C118.004 279.586 125.347 278.456 131.436 277.954C134.009 278.205 136.206 278.456 138.842 278.896C133.632 279.398 127.23 280.527 123.527 281.155C119.887 281.783 109.97 283.666 109.97 286.804C109.97 290.382 123.213 294.964 129.678 297.223C136.206 299.483 146.813 302.182 161.437 306.01C179.702 310.78 201.105 316.304 206.628 317.873C219.056 321.45 253.828 329.736 253.828 341.159C253.828 350.887 239.266 356.097 221.504 361.558C202.863 367.269 184.472 371.474 164.701 375.366C143.549 379.446 119.698 383.4 92.0189 388.609C78.2733 391.183 24.6717 399.468 24.4834 410.64C24.2951 421.059 75.7 431.541 99.3625 436.374C126.226 441.834 169.346 448.739 226.964 448.739C369.191 448.739 830.893 448.739 945 448.739V467.882H267.762C159.994 467.882 102.124 452.944 80.0308 448.739C77.4574 448.236 75.2606 447.797 73.3149 447.358C49.7779 442.085 5.27722 427.336 5.27722 409.887C5.27722 398.087 33.4589 390.367 49.9661 386.915ZM17.0143 410.326C17.0143 410.263 17.0143 410.263 17.0143 410.201C17.0143 410.201 17.0143 410.263 17.0143 410.326Z" fill="white"/>
<path d="M330.392 227.615H290.222V224.728H330.392V227.615Z" fill="#F2FBFC"/>
<path d="M716.722 92.859C720.677 89.1558 740.699 90.0973 759.215 83.9463C775.283 78.6112 788.714 66.1209 801.267 59.5933C826.185 46.6637 844.387 51.9987 865.414 44.5297C883.804 39.0063 895.918 22.3107 911.232 10.9502C920.71 3.92048 933.514 -0.0337349 944.937 0.217326V75.9123C930.438 86.2059 912.613 93.2356 897.047 95.1813C876.335 97.7547 842.567 93.3611 821.792 97.2526C792.857 102.588 767.374 115.392 740.887 111.94C730.405 110.496 708.375 100.767 716.722 92.859Z" fill="#F2FBFC"/>
<path d="M609.457 122.798C616.737 105.538 661.552 81.4986 682.39 88.905C705.299 97.0017 687.85 120.601 670.653 118.53C636.634 114.388 631.299 123.363 618.62 128.698C612.783 131.146 606.695 129.389 609.457 122.798Z" fill="#F2FBFC"/>
<path d="M280.566 130.267C260.669 133.594 243.032 125.12 222.131 122.107C207.131 119.973 178.07 125.873 163.509 121.919C134.762 114.199 138.277 85.4525 102.187 79.6153C67.2266 73.9037 48.8991 63.7357 57.6235 49.1114C65.783 35.4913 134.26 34.9891 163.76 62.4804C173.174 71.2675 181.522 81.9376 194.577 85.3897C209.39 90.1599 223.324 85.7663 240.584 94.3652C249.309 98.696 258.096 107.295 269.457 110.684C282.637 114.576 297.45 113.258 300.023 115.831C305.547 121.229 288.412 128.949 280.566 130.267Z" fill="#F2FBFC"/>
<path d="M-11.1046 60.5974C-16.8162 50.7432 14.6292 39.3199 27.9982 47.5422C43.8151 57.2708 33.8982 72.8994 19.0228 66.9994C-2.0036 58.6517 -8.59396 64.8027 -11.1046 60.5974Z" fill="#F2FBFC"/>
<path d="M239.392 275.192H243.723V283.477H239.392V275.192Z" fill="#7AC3DE"/>
<path d="M239.392 289.942H243.723V298.227H239.392V289.942Z" fill="#7AC3DE"/>
<path d="M860.957 448.676C858.76 442.525 860.894 429.595 865.225 423.256C871.439 414.092 883.553 412.209 892.403 416.979C905.458 424.072 895.604 396.894 903.826 392.877C912.613 388.672 920.145 402.292 924.852 398.401C929.748 394.321 922.969 378.127 926.359 367.081C929.811 355.657 938.786 349.004 944.937 350.511V448.738H860.957V448.676Z" fill="#1E2859"/>
<path d="M350.675 296.909H355.006V305.194H350.675V296.909Z" fill="#7AC3DE"/>
<path d="M850.475 151.356C873.699 144.515 895.98 152.11 921.275 152.674C927.677 152.8 936.025 151.545 944.875 149.913V191.526C931.945 191.84 919.141 194.162 903.198 188.514C892.214 184.622 880.477 175.584 866.418 173.199C850.162 170.437 832.65 174.14 829.198 171.441C822.043 165.73 841.374 154.055 850.475 151.356Z" fill="#F2FBFC"/>
<path d="M135.515 270.799C112.914 270.799 94.5922 268.804 94.5922 266.343C94.5922 263.881 112.914 261.886 135.515 261.886C158.116 261.886 176.438 263.881 176.438 266.343C176.438 268.804 158.116 270.799 135.515 270.799Z" fill="#1E2859"/>
<path d="M162.316 231.32C167.651 225.106 170.915 217.072 170.915 208.285C170.915 188.765 155.098 172.948 135.578 172.948C116.058 172.948 100.241 188.765 100.241 208.285C100.241 217.072 103.505 225.169 108.84 231.32L135.641 266.28L162.316 231.32Z" fill="url(#paint2_linear_1494_750)"/>
<path d="M112.72 217.715C107.507 205.128 113.484 190.699 126.07 185.485C138.656 180.272 153.086 186.249 158.3 198.835C163.513 211.421 157.536 225.851 144.95 231.064C132.364 236.278 117.934 230.301 112.72 217.715Z" fill="white"/>
<path d="M130.557 220.148H148.319V204.205L139.469 193.221L130.557 204.205V220.148Z" fill="#367AD1"/>
<path d="M122.146 204.205H130.557V220.147H122.146V204.205Z" fill="#1E2859"/>
<path d="M137.712 209.979H141.164V218.641H137.712V209.979Z" fill="white"/>
<path d="M742.393 438.445C757.457 438.445 770.826 450.684 772.207 465.748C773.588 480.811 762.478 493.051 747.415 493.051H733.418L728.397 438.445H742.393Z" fill="#2E2E2D"/>
<path d="M712.839 484.615C701.434 473.719 700.264 456.434 710.226 446.006C720.187 435.579 737.508 435.958 748.913 446.854C760.318 457.749 761.488 475.035 751.527 485.462C741.565 495.89 724.244 495.51 712.839 484.615Z" fill="#2E2E2D"/>
<path d="M719.342 477.804C712.047 470.835 711.298 459.781 717.668 453.114C724.037 446.446 735.114 446.69 742.408 453.658C749.702 460.627 750.452 471.681 744.082 478.348C737.712 485.016 726.636 484.772 719.342 477.804Z" fill="#575756"/>
<path d="M697.579 438.445C712.643 438.445 726.012 450.684 727.393 465.748C728.773 480.811 717.664 493.051 702.6 493.051H688.666L683.645 438.445H697.579Z" fill="#2E2E2D"/>
<path d="M527.673 438.445C542.737 438.445 556.106 450.684 557.487 465.748C558.868 480.811 547.758 493.051 532.694 493.051H518.76L513.739 438.445H527.673Z" fill="#2E2E2D"/>
<path d="M498.109 484.618C486.704 473.723 485.534 456.437 495.495 446.01C505.457 435.582 522.778 435.962 534.183 446.857C545.588 457.753 546.758 475.039 536.796 485.466C526.834 495.893 509.513 495.514 498.109 484.618Z" fill="#2E2E2D"/>
<path d="M504.613 477.815C497.319 470.846 496.569 459.792 502.939 453.125C509.308 446.457 520.385 446.701 527.679 453.67C534.973 460.638 535.723 471.692 529.353 478.359C522.983 485.027 511.907 484.783 504.613 477.815Z" fill="#575756"/>
<path d="M482.859 438.445C497.922 438.445 511.292 450.684 512.672 465.748C514.053 480.811 502.944 493.051 487.88 493.051H473.946L468.925 438.445H482.859Z" fill="#2E2E2D"/>
<path d="M415.323 404.175L420.47 397.71C422.981 394.509 424.801 390.869 425.805 386.852L453.987 275.569C455.619 269.041 461.393 264.647 468.297 264.647H524.409L542.8 465.497H424.613C420.344 465.497 416.516 462.045 416.139 457.714L412.248 414.908C411.871 410.954 413.001 407.125 415.323 404.175Z" fill="#FF9B2B"/>
<path d="M504.576 465.497L503.76 456.709C502.065 438.382 485.872 423.507 467.544 423.507C449.217 423.507 435.722 438.382 437.417 456.709L438.233 465.497H504.576Z" fill="#182047"/>
<path d="M503.76 456.71L504.576 465.497H471.373L468.925 438.445H482.859C489.198 438.445 495.224 440.642 500.245 444.282C502.128 448.048 503.383 452.253 503.76 456.71Z" fill="#333332"/>
<path d="M453.348 484.635C441.943 473.74 440.773 456.454 450.735 446.027C460.696 435.6 478.017 435.979 489.422 446.875C500.827 457.77 501.997 475.056 492.036 485.483C482.074 495.91 464.753 495.531 453.348 484.635Z" fill="#575756"/>
<path d="M459.852 477.826C452.558 470.857 451.808 459.803 458.178 453.136C464.548 446.468 475.624 446.712 482.919 453.681C490.213 460.649 490.962 471.703 484.593 478.37C478.223 485.038 467.146 484.794 459.852 477.826Z" fill="#B2B2B2"/>
<path d="M477.838 456.145C478.277 457.525 478.528 458.969 478.591 460.475C478.716 467.38 473.758 472.966 466.916 473.531C465.536 473.656 464.155 473.531 462.837 473.28C461.707 473.028 461.016 474.409 461.895 475.225C464.782 478.05 468.674 479.87 472.816 479.807C480.599 479.807 486.374 473.342 485.62 465.559C485.181 461.291 482.922 457.525 479.72 454.952C478.716 454.199 477.461 455.015 477.838 456.145Z" fill="#EDEDED"/>
<path d="M510.692 288.516L525.419 449.146L524.482 449.231L509.755 288.602L510.692 288.516Z" fill="#182047"/>
<path d="M492.022 391.559H510.413L509.973 386.601H491.583L492.022 391.559ZM509.408 390.68H492.838L492.525 387.605H509.095L509.408 390.68Z" fill="#30358C"/>
<path d="M438.986 417.418H466.979V416.477H438.986C437.417 416.477 436.036 415.222 435.91 413.652L433.839 391.057L432.96 391.12L435.032 413.715C435.22 415.786 436.977 417.418 438.986 417.418Z" fill="#182047"/>
<path d="M413.378 433.11H446.204V434.051H413.378V433.11Z" fill="#182047"/>
<path d="M511.794 361.181L505.58 293.017C505.329 290.507 503.132 288.498 500.621 288.498H459.51C457.501 288.498 455.87 289.754 455.493 291.699L435.031 383.902C434.278 387.165 437.417 390.366 440.743 389.676L499.178 378.316C507.212 376.746 512.547 369.528 511.794 361.181Z" fill="#182047"/>
<path d="M502.379 308.018H487.315C485.181 308.018 483.486 309.525 483.235 311.596L474.887 376.558C474.511 379.759 477.524 382.584 480.662 381.956L499.115 378.378C507.212 376.809 512.484 369.591 511.731 361.243L507.274 312.6C507.086 310.027 504.889 308.018 502.379 308.018Z" fill="#367AD1"/>
<path d="M434.526 383.805L435.445 384.009L433.839 391.239L432.92 391.035L434.526 383.805Z" fill="#30358C"/>
<path d="M439.864 390.241C440.178 390.241 440.492 390.241 440.806 390.178L499.24 378.818L499.052 377.939L440.618 389.3C439.237 389.551 437.73 389.049 436.663 387.982C435.596 386.914 435.157 385.408 435.471 384.027L455.932 291.825C456.309 290.13 457.753 289.001 459.51 289.001V288.059C457.313 288.059 455.493 289.503 455.054 291.574L434.592 383.776C434.216 385.471 434.78 387.228 436.036 388.546C437.04 389.676 438.421 390.241 439.864 390.241Z" fill="#182047"/>
<path d="M448.652 391.12H441.371C440.304 391.12 439.362 390.241 439.237 389.174L436.852 363.126C436.726 362.059 437.542 361.181 438.609 361.181H445.953C447.02 361.181 447.961 362.059 448.087 363.126L450.472 389.174C450.535 390.241 449.719 391.12 448.652 391.12Z" fill="#FFB35C"/>
<path d="M423.671 452.316H415.7L414.947 444.156H422.918L423.671 452.316Z" fill="#F2FBFC"/>
<path d="M420.909 406.56L420.533 409.761C420.282 412.021 420.219 414.28 420.407 416.603L421.788 431.603C421.914 432.67 421.098 433.549 420.031 433.549H413.942L412.248 414.908C411.871 410.954 413.001 407.188 415.323 404.238H418.838C420.031 404.175 421.098 405.368 420.909 406.56Z" fill="#F2FBFC"/>
<path d="M484.239 366.767C483.235 362.248 480.411 357.729 479.595 353.084C478.967 349.506 478.779 344.799 481.478 342.163C485.306 338.397 493.529 336.2 495.475 335.635C499.931 334.317 505.894 333.752 509.22 333.752L511.731 361.181C512.484 369.591 507.212 376.746 499.115 378.316L484.993 381.077C485.118 374.236 485.244 371.286 484.239 366.767Z" fill="white"/>
<path d="M482.357 319.693C482.67 317.37 483.737 315.111 486.185 314.42C488.508 313.73 491.269 313.981 493.089 315.048C497.922 318.061 497.044 324.023 498.864 328.794C499.366 330.174 500.37 332.057 500.935 333.438C501.375 334.442 501.563 335.07 500.872 336.074C499.554 338.02 496.981 338.083 495.035 338.02C493.78 338.02 492.022 337.392 491.646 336.451C491.081 335.07 490.328 333.124 489.7 331.493C487.315 331.43 483.863 331.367 482.922 328.731C481.98 326.095 481.98 322.517 482.357 319.693Z" fill="#FEC1B5"/>
<path d="M485.181 313.918C487.441 313.228 490.139 312.914 492.525 313.416C494.596 313.856 496.039 315.55 496.981 317.37C497.546 318.5 497.734 319.818 497.985 321.074C498.236 322.58 499.178 325.09 498.299 326.346C497.357 327.727 495.161 327.978 493.466 327.727C492.713 327.601 491.96 327.287 491.395 326.785C490.642 326.158 490.516 325.906 490.202 325.09C489.763 324.086 488.696 324.463 487.88 323.898C487.315 323.459 487.001 322.705 486.876 322.015C486.75 321.325 486.625 320.76 485.997 320.258C485.683 320.007 485.118 319.944 484.742 319.755C483.926 319.379 483.172 318.94 482.733 318.186C481.603 316.429 483.612 314.42 485.181 313.918Z" fill="#1E2859"/>
<path d="M488.633 324.024C488.319 325.216 488.696 326.346 489.386 326.534C490.077 326.722 490.893 325.906 491.206 324.777C491.52 323.584 491.144 322.454 490.453 322.266C489.763 322.078 488.947 322.894 488.633 324.024Z" fill="#FEC1B5"/>
<path d="M483.11 314.358C483.298 312.224 485.746 311.219 486.625 310.843C489.198 309.901 492.148 310.152 494.659 311.094C497.42 312.161 499.052 314.985 499.115 318.124C499.241 322.015 496.102 323.019 492.901 322.517C490.704 322.203 489.01 321.199 487.252 319.818C486.562 319.316 482.796 317.245 483.11 314.358Z" fill="#FF9B2B"/>
<path d="M477.837 312.412C477.963 311.345 479.218 309.964 480.599 309.776C482.608 309.462 484.24 310.278 486.123 310.968C486.311 311.031 486.248 311.157 486.06 311.219C483.424 312.224 484.365 315.613 485.369 317.872C485.495 318.124 485.307 318.375 485.118 318.312C483.298 317.621 481.729 317.119 480.097 316.115C478.653 315.236 477.586 314.358 477.837 312.412Z" fill="#FFB35C"/>
<path d="M481.666 359.549C481.792 358.921 481.98 358.231 482.482 357.603C483.612 355.908 488.257 350.824 489.449 354.904C489.888 356.285 488.759 363.503 488.445 365.7C488.068 368.21 487.943 372.353 489.888 373.796C490.955 374.612 492.838 374.173 494.094 373.859C494.659 373.734 496.855 372.604 497.42 372.98C499.178 374.048 494.533 376.746 492.713 377.186C490.893 377.562 486.938 377.813 485.118 376.433C485.118 372.604 484.993 370.156 484.24 366.829C483.675 364.382 482.67 361.997 481.666 359.549Z" fill="#DADADA"/>
<path d="M483.424 339.966C487.064 336.388 494.282 339.275 496.981 342.163C499.994 345.364 502.567 350.134 503.446 354.653C504.136 354.402 504.952 354.088 505.643 353.774C505.391 351.012 504.952 344.171 504.889 342.727C504.764 340.28 504.513 336.514 503.822 334.003C503.76 333.815 503.885 333.752 504.011 333.752C504.638 333.627 505.454 333.564 505.956 333.564C506.145 333.564 506.207 333.752 506.27 333.815C506.961 335.196 507.4 339.024 507.463 340.531C507.651 343.543 508.028 349.757 508.592 352.707C508.906 356.159 510.727 362.875 511.605 365.386C510.601 371.913 505.831 377.06 499.115 378.378L484.993 381.14C484.993 381.14 484.051 377.186 484.24 375.993C484.428 374.612 486.687 375.805 487.441 376.056C492.148 377.625 496.353 375.177 498.55 371.16C500.182 368.273 501.374 363.063 500.684 356.41C500.119 352.393 498.864 350.071 498.236 348.878C495.851 344.422 492.022 341.033 488.821 340.091C486.625 339.464 484.993 339.715 484.114 340.154C483.737 340.28 482.67 340.719 483.424 339.966Z" fill="#FF9B2B"/>
<path d="M448.087 363.252C451.099 364.758 454.3 366.265 458.004 368.085C461.205 369.654 463.59 368.273 465.222 366.076C467.607 362.938 475.013 350.259 478.528 345.615C481.352 341.912 482.482 340.217 486.562 341.096C488.445 341.472 490.642 344.359 490.83 348C490.893 350.008 490.077 355.657 487.88 358.921C483.988 364.633 474.448 373.043 470.306 376.119C466.728 378.818 464.155 380.073 459.071 377.751C454.489 375.679 451.915 373.483 448.84 371.16L448.087 363.252Z" fill="white"/>
<path d="M526.543 288.059L526.669 289.001H448.401V288.059H526.543Z" fill="#182047"/>
<path d="M507.526 448.675H541.231L541.356 449.617H506.835L506.773 449.24C502.379 431.352 484.867 417.356 466.979 417.356V416.414C485.118 416.477 502.881 430.599 507.526 448.675Z" fill="#182047"/>
<path d="M743.272 216.695H520.016L541.293 448.676H764.487L743.272 216.695Z" fill="white"/>
<path d="M542.8 465.497H843.948L842.379 448.676H541.293L542.8 465.497Z" fill="#182047"/>
<path d="M764.487 448.676H842.379L821.164 216.695H743.272L764.487 448.676Z" fill="#C6C6C6"/>
<path d="M719.233 465.497L718.543 456.709C716.848 438.382 700.654 423.507 682.327 423.507C664 423.507 650.505 438.382 652.2 456.709L653.016 465.497H719.233Z" fill="#182047"/>
<path d="M683.645 438.445L686.093 465.497H719.17L718.48 456.71C718.103 452.316 716.848 448.111 714.902 444.282C709.944 440.642 703.856 438.445 697.516 438.445H683.645Z" fill="#2E2E2D"/>
<path d="M668.079 484.631C656.674 473.736 655.504 456.45 665.465 446.023C675.427 435.596 692.748 435.975 704.153 446.871C715.558 457.766 716.728 475.052 706.766 485.479C696.805 495.906 679.484 495.527 668.079 484.631Z" fill="#575756"/>
<path d="M674.581 477.82C667.287 470.852 666.538 459.798 672.907 453.13C679.277 446.463 690.354 446.707 697.648 453.675C704.942 460.643 705.691 471.697 699.322 478.365C692.952 485.032 681.875 484.788 674.581 477.82Z" fill="#9D9D9C"/>
<path d="M692.558 456.145C692.997 457.525 693.248 458.969 693.311 460.475C693.436 467.38 688.478 472.966 681.637 473.531C680.256 473.656 678.875 473.531 677.557 473.28C676.427 473.028 675.737 474.409 676.615 475.225C679.503 478.05 683.394 479.87 687.537 479.807C695.319 479.807 701.094 473.342 700.341 465.559C699.901 461.291 697.642 457.525 694.441 454.952C693.436 454.199 692.181 455.015 692.558 456.145Z" fill="#DADADA"/>
<path d="M751.62 230.88H815.452V231.821H751.62V230.88Z" fill="#706F6F"/>
<path d="M815.91 231.343L835.799 448.661L834.861 448.747L814.972 231.428L815.91 231.343Z" fill="#706F6F"/>
<path d="M752.109 231.379L771.998 448.698L771.061 448.784L751.171 231.465L752.109 231.379Z" fill="#706F6F"/>
<path d="M784.009 231.361L803.898 448.68L802.961 448.765L783.072 231.447L784.009 231.361Z" fill="#706F6F"/>
<defs>
<linearGradient id="paint0_linear_1494_750" x1="1481.28" y1="257.859" x2="-125.219" y2="257.859" gradientUnits="userSpaceOnUse">
<stop stop-color="#BCE5F7"/>
<stop offset="0.3034" stop-color="#CDECF9"/>
<stop offset="0.6632" stop-color="#DAF2FB"/>
<stop offset="1" stop-color="#DEF4FC"/>
</linearGradient>
<linearGradient id="paint1_linear_1494_750" x1="-25.0512" y1="363.51" x2="961.643" y2="363.51" gradientUnits="userSpaceOnUse">
<stop stop-color="#26D5A9"/>
<stop offset="1" stop-color="#76EBD8"/>
</linearGradient>
<linearGradient id="paint2_linear_1494_750" x1="160.66" y1="251.818" x2="70.287" y2="95.2876" gradientUnits="userSpaceOnUse">
<stop stop-color="#EC7B35"/>
<stop offset="1" stop-color="#FA9C55"/>
</linearGradient>
</defs>
</svg>
